<?xml version="1.0" encoding="utf-8"?>
<!-- Generator: Adobe Illustrator 24.2.3, SVG Export Plug-In . SVG Version: 6.00 Build 0)  -->
<svg version="1.1" id="Layer_1" xmlns="http://www.w3.org/2000/svg" xmlns:xlink="http://www.w3.org/1999/xlink" x="0px" y="0px"
	 viewBox="0 0 288 57" style="enable-background:new 0 0 288 57;" xml:space="preserve">
<style type="text/css">
	.st0{fill:#FFFFFF;}
</style>
<path class="st0" d="M24.14,25.71c2.4,0,3.85-0.92,4.9-1.66l1.16,1.5c-1.69,1.4-3.61,2.19-6.24,2.19c-5.32,0-9.06-3.5-9.06-9.43
	c0-5.95,3.74-9.53,9.09-9.53c2.45,0,4.37,0.74,6.08,2.19l-1.16,1.53c-1.26-0.92-2.63-1.69-4.71-1.69c-4.08,0-6.93,2.55-6.93,7.51
	C17.26,23.11,20.13,25.71,24.14,25.71z"/>
<path class="st0" d="M32.73,27.48V9.04h2.34v16.51h4.42v1.92H32.73z"/>
<path class="st0" d="M49.78,8.78c5.9,0,9.48,4,9.48,9.48c0,5.5-3.58,9.48-9.48,9.48s-9.48-3.98-9.48-9.48
	C40.3,12.78,43.88,8.78,49.78,8.78z M49.78,25.66c4.21,0,7.01-3.08,7.01-7.4c0-4.29-2.79-7.4-7.01-7.4c-4.19,0-7.01,3.11-7.01,7.4
	C42.77,22.58,45.59,25.66,49.78,25.66z"/>
<path class="st0" d="M65.58,27.74c-1.74,0-3.32-0.37-4.56-1.08l0.9-1.76c1.05,0.55,2.34,0.92,3.58,0.92c1.69,0,2.92-0.87,2.92-2.84
	c0-4.29-7.09-4.03-7.09-9.77c0-3.06,2.08-4.42,4.85-4.42c1.84,0,2.98,0.53,4.06,1.16l-0.95,1.63c-0.9-0.53-1.74-0.9-2.84-0.9
	c-1.69,0-2.9,0.71-2.9,2.42c0,4.11,7.11,3.79,7.11,9.8C70.66,26.27,68.29,27.74,65.58,27.74z"/>
<path class="st0" d="M73.68,9.04h8.45v1.92h-6.11v6.22h5.29v1.92h-5.29v6.45h6.11v1.92h-8.45V9.04z"/>
<path class="st0" d="M91.24,9.04h8.45v1.92h-6.11v6.22h5.29v1.92h-5.29v6.45h6.11v1.92h-8.45V9.04z"/>
<path class="st0" d="M105.05,14.47v13.01h-2.21V8.78l11.22,13.27V9.04h2.21v18.7L105.05,14.47z"/>
<path class="st0" d="M128.88,25.71c2.4,0,3.85-0.92,4.9-1.66l1.16,1.5c-1.69,1.4-3.61,2.19-6.24,2.19c-5.32,0-9.06-3.5-9.06-9.43
	c0-5.95,3.74-9.53,9.09-9.53c2.45,0,4.37,0.74,6.08,2.19l-1.16,1.53c-1.26-0.92-2.63-1.69-4.71-1.69c-4.08,0-6.93,2.55-6.93,7.51
	C122,23.11,124.88,25.71,128.88,25.71z"/>
<path class="st0" d="M145.59,8.78c5.9,0,9.48,4,9.48,9.48c0,5.5-3.58,9.48-9.48,9.48c-5.9,0-9.48-3.98-9.48-9.48
	C136.1,12.78,139.69,8.78,145.59,8.78z M145.59,25.66c4.21,0,7.01-3.08,7.01-7.4c0-4.29-2.79-7.4-7.01-7.4
	c-4.19,0-7.01,3.11-7.01,7.4C138.58,22.58,141.4,25.66,145.59,25.66z"/>
<path class="st0" d="M166.96,9.04h2.37v12.85c0,4.77-2.77,5.85-5.53,5.85s-5.53-1.08-5.53-5.85V9.04h2.34v12.77
	c0,3.16,1.71,3.77,3.19,3.77c1.42,0,3.16-0.58,3.16-3.77V9.04z"/>
<path class="st0" d="M175.78,14.47v13.01h-2.21V8.78l11.22,13.27V9.04H187v18.7L175.78,14.47z"/>
<path class="st0" d="M193.31,27.48V10.96h-3.69V9.04h9.74v1.92h-3.71v16.51H193.31z"/>
<path class="st0" d="M201.96,9.04h8.45v1.92h-6.11v6.22h5.29v1.92h-5.29v6.45h6.11v1.92h-8.45V9.04z"/>
<path class="st0" d="M223.38,14.63c0,2.48-0.9,4.48-3.21,5.35l3.92,7.51h-2.56l-3.71-7.08h-0.42c-0.58,0-1.05-0.05-1.5-0.13v7.22
	h-2.34V9.23c1.13-0.29,2.4-0.45,3.63-0.45C221.83,8.78,223.38,11.39,223.38,14.63z M215.9,18.31c0.58,0.1,1.16,0.13,1.47,0.13
	c2.58,0,3.61-1.63,3.61-3.85c0-2.26-1.05-3.85-3.61-3.85c-0.32,0-0.9,0-1.47,0.13V18.31z"/>
<path class="st0" d="M230.53,27.74c-1.74,0-3.32-0.37-4.56-1.08l0.9-1.76c1.05,0.55,2.34,0.92,3.58,0.92c1.69,0,2.92-0.87,2.92-2.84
	c0-4.29-7.09-4.03-7.09-9.77c0-3.06,2.08-4.42,4.85-4.42c1.84,0,2.98,0.53,4.06,1.16l-0.95,1.63c-0.9-0.53-1.74-0.9-2.85-0.9
	c-1.69,0-2.9,0.71-2.9,2.42c0,4.11,7.11,3.79,7.11,9.8C235.61,26.27,233.24,27.74,230.53,27.74z"/>
<path class="st0" d="M76.14,42.77l4.74-12.51l3.9,18.7h-2.19l-2.42-11.51l-4.5,11.77l-4.5-11.72l-2.42,11.46h-2.19l3.92-18.7
	l4.71,12.51c0.24,0.69,0.37,1.16,0.47,1.69C75.77,43.93,75.93,43.37,76.14,42.77z"/>
<path class="st0" d="M87.7,30.52h8.45v1.92h-6.11v6.22h5.29v1.92h-5.29v6.45h6.11v1.92H87.7V30.52z"/>
<path class="st0" d="M102.03,48.96V32.44h-3.69v-1.92h9.74v1.92h-3.71v16.51H102.03z"/>
<path class="st0" d="M110.68,30.52h8.45v1.92h-6.11v6.22h5.29v1.92h-5.29v6.45h6.11v1.92h-8.45V30.52z"/>
<path class="st0" d="M130.57,30.26c5.9,0,9.48,4,9.48,9.48c0,5.51-3.58,9.48-9.48,9.48s-9.48-3.98-9.48-9.48
	C121.09,34.26,124.68,30.26,130.57,30.26z M130.57,47.14c4.21,0,7.01-3.08,7.01-7.4c0-4.29-2.79-7.4-7.01-7.4
	c-4.19,0-7.01,3.11-7.01,7.4C123.57,44.06,126.39,47.14,130.57,47.14z"/>
<path class="st0" d="M153.21,36.1c0,2.48-0.89,4.48-3.21,5.35l3.92,7.51h-2.55l-3.71-7.08h-0.42c-0.58,0-1.05-0.05-1.5-0.13v7.22
	h-2.34V30.71c1.13-0.29,2.4-0.45,3.64-0.45C151.65,30.26,153.21,32.86,153.21,36.1z M145.73,39.79c0.58,0.11,1.16,0.13,1.48,0.13
	c2.58,0,3.61-1.63,3.61-3.84c0-2.26-1.05-3.85-3.61-3.85c-0.32,0-0.9,0-1.48,0.13V39.79z"/>
<path class="st0" d="M162.39,48.96V30.52h2.34v8.72l6.22-8.72h2.55l-6.32,8.85l6.74,9.59h-2.66l-6.53-9.43v9.43H162.39z"/>
<path class="st0" d="M176.15,48.96V30.52h2.34v18.44H176.15z"/>
<path class="st0" d="M185.01,35.95v13.01h-2.21v-18.7l11.22,13.27V30.52h2.21v18.7L185.01,35.95z"/>
<path class="st0" d="M200.57,48.93V30.57c1.16-0.18,2.5-0.32,3.61-0.32c6.29,0,8.48,4.29,8.48,9.51c0,5.19-2.19,9.46-8.56,9.46
	C202.84,49.22,201.73,49.12,200.57,48.93z M202.92,47.14c0.66,0.11,1.13,0.13,1.61,0.13c4,0,5.74-3,5.74-7.51
	c0-4.56-1.77-7.53-5.69-7.53c-0.45,0-1.21,0.03-1.66,0.13V47.14z"/>
<g>
	<path class="st0" d="M20.72,35.43c3.44,0,5.53,2.33,5.53,5.53c0,3.21-2.09,5.53-5.53,5.53s-5.53-2.32-5.53-5.53
		C15.19,37.77,17.28,35.43,20.72,35.43z M20.72,45.28c2.46,0,4.09-1.8,4.09-4.31c0-2.5-1.63-4.31-4.09-4.31
		c-2.44,0-4.08,1.81-4.08,4.31C16.64,43.48,18.28,45.28,20.72,45.28z"/>
	<path class="st0" d="M28.3,35.59h4.62v1.11h-3.26v3.61h2.73v1.12h-2.73v4.91H28.3V35.59z"/>
	<path class="st0" d="M39.41,46.34v-9.63h-2.15v-1.12h5.68v1.12h-2.17v9.63H39.41z"/>
	<path class="st0" d="M44.58,46.34V35.59h1.37v4.7h4.02v-4.7h1.37v10.75h-1.37v-4.93h-4.02v4.93H44.58z"/>
	<path class="st0" d="M53.98,35.59h4.93v1.12h-3.56v3.62h3.09v1.12h-3.09v3.76h3.56v1.12h-4.93V35.59z"/>
</g>
<circle class="st0" cx="49.78" cy="18.13" r="4.85"/>
<circle class="st0" cx="145.59" cy="18.13" r="4.85"/>
<circle class="st0" cx="130.57" cy="39.92" r="4.85"/>
<g>
	<path class="st0" d="M275.03,9c0.3,0.3,0.3,0.78,0,1.07l0,0l-26.6,26.6c-0.3,0.3-0.78,0.3-1.07,0l0,0c-0.3-0.3-0.3-0.78,0-1.07l0,0
		L273.96,9c0.15-0.15,0.34-0.22,0.54-0.22l0,0C274.69,8.78,274.89,8.85,275.03,9L275.03,9z M270.77,20.71
		c-0.15-0.17-0.36-0.26-0.57-0.26l0,0c-0.18,0-0.36,0.06-0.5,0.19l-20.82,18.34l0,0c-0.31,0.28-0.34,0.76-0.07,1.07l0,0
		c0.28,0.31,0.76,0.34,1.07,0.07l20.82-18.35l0,0C271.02,21.51,271.05,21.03,270.77,20.71L270.77,20.71z M246.23,44.59
		c1.87-1.88,1.87-4.91,0-6.79c-1.88-1.88-4.92-1.88-6.79,0c-1.87,1.87-1.87,4.91,0,6.79C241.31,46.47,244.36,46.47,246.23,44.59z
		 M263.32,13.26c-0.14-0.13-0.32-0.19-0.5-0.19l0,0c-0.21,0-0.42,0.09-0.57,0.26l-18.34,20.82l0,0c-0.28,0.31-0.25,0.79,0.07,1.07
		l0,0c0.31,0.28,0.79,0.25,1.07-0.07l18.34-20.82l0,0C263.67,14.02,263.63,13.54,263.32,13.26L263.32,13.26z M253.39,17.32
		c-0.14-0.12-0.31-0.17-0.48-0.17l0,0c-0.22,0-0.44,0.09-0.59,0.28L236.8,36.28l0,0c-1.17,1.43-1.75,3.18-1.75,4.92l0,0
		c0,1.99,0.76,3.99,2.28,5.51l0,0c1.52,1.52,3.52,2.28,5.51,2.28l0,0c1.74,0,3.49-0.58,4.91-1.75l18.86-15.53l0,0
		c0.32-0.27,0.37-0.74,0.1-1.07l0,0c-0.27-0.32-0.74-0.37-1.07-0.1l-18.85,15.53l0,0c-1.15,0.93-2.55,1.4-3.95,1.4l0,0
		c-1.61,0-3.21-0.61-4.44-1.84l0,0c-1.23-1.23-1.84-2.83-1.84-4.43l0,0c0-1.41,0.47-2.81,1.41-3.96l15.52-18.85l0,0
		C253.76,18.06,253.71,17.59,253.39,17.32L253.39,17.32z"/>
</g>
</svg>
