<?xml version="1.0" encoding="utf-8"?>
<!-- Generator: Adobe Illustrator 24.2.3, SVG Export Plug-In . SVG Version: 6.00 Build 0)  -->
<svg version="1.1" id="Layer_1" xmlns="http://www.w3.org/2000/svg" xmlns:xlink="http://www.w3.org/1999/xlink" x="0px" y="0px"
	 viewBox="0 0 265.1 34.1" style="enable-background:new 0 0 265.1 34.1;" xml:space="preserve">
<style type="text/css">
	.st0{fill:#FFFFFF;}
</style>
<path class="st0" d="M65.8,23.8c1.2,0,2.2-0.3,3.1-0.8c0.9-0.5,1.7-1.3,2.2-2.3c0.5-1,0.8-2.1,0.8-3.3c0-1.2-0.3-2.4-0.8-3.3
	c-0.5-1-1.3-1.7-2.2-2.3c-0.9-0.5-2-0.8-3.1-0.8c-1.2,0-2.2,0.3-3.1,0.8C61.8,12.3,61,13,60.5,14c-0.5,1-0.8,2.1-0.8,3.3
	c0,1.2,0.3,2.4,0.8,3.3c0.5,1,1.3,1.7,2.2,2.3C63.6,23.5,64.7,23.8,65.8,23.8z M65.9,9.6c1.4,0,2.7,0.3,3.9,1c1.1,0.7,2,1.6,2.7,2.7
	c0.7,1.2,1,2.5,1,4c0,1.5-0.3,2.8-1,4c-0.6,1.2-1.5,2.1-2.7,2.7c-1.1,0.6-2.4,1-3.9,1c-1.3,0-2.6-0.3-3.6-0.9
	c-1.1-0.6-1.9-1.5-2.5-2.6v9.1h-1.5V9.7h1.4v3.6c0.6-1.2,1.5-2.1,2.6-2.7C63.3,9.9,64.6,9.6,65.9,9.6z M45.6,23.9
	c1.3,0,2.3-0.3,3.2-0.9c0.9-0.6,1.6-1.4,2-2.5v-2.9h-5.2c-1.5,0-2.6,0.3-3.3,0.8c-0.7,0.5-1,1.3-1,2.2c0,1,0.4,1.8,1.1,2.3
	C43.2,23.6,44.2,23.9,45.6,23.9z M46.4,9.6c1.9,0,3.3,0.5,4.3,1.4c1,1,1.5,2.4,1.5,4.2V25h-1.4v-2.7c-0.5,0.9-1.2,1.6-2.1,2.1
	c-0.9,0.5-2,0.7-3.4,0.7c-1.7,0-3-0.4-4-1.2s-1.5-1.8-1.5-3.2c0-1.3,0.5-2.3,1.4-3.1c0.9-0.8,2.4-1.2,4.3-1.2h5.2v-1.2
	c0-1.4-0.4-2.5-1.2-3.2c-0.8-0.7-1.9-1.1-3.4-1.1c-1,0-2,0.2-2.9,0.5c-0.9,0.3-1.7,0.8-2.3,1.4l-0.7-1c0.8-0.7,1.7-1.2,2.7-1.6
	C44.1,9.8,45.2,9.6,46.4,9.6z M29.1,9.6c1.9,0,3.4,0.6,4.5,1.7c1.1,1.1,1.7,2.7,1.7,4.8V25h-1.5v-8.8c0-1.7-0.4-3-1.3-3.9
	c-0.9-0.9-2.1-1.3-3.6-1.3c-1.8,0-3.2,0.5-4.2,1.6s-1.5,2.5-1.5,4.3V25h-1.5V9.7H23V13c0.5-1.1,1.3-1.9,2.3-2.5
	C26.4,9.9,27.6,9.6,29.1,9.6z M9.7,25.1c-1.5,0-2.9-0.3-4.3-0.8c-1.4-0.5-2.4-1.2-3.2-2l0.7-1.1c0.7,0.8,1.7,1.4,2.9,1.9
	c1.2,0.5,2.5,0.7,3.8,0.7c1.9,0,3.4-0.4,4.4-1.1c1-0.7,1.5-1.7,1.5-2.9c0-0.9-0.3-1.6-0.8-2.2c-0.5-0.5-1.2-1-2-1.3
	c-0.8-0.3-1.8-0.6-3.2-0.9C8.2,15.1,7,14.7,6,14.4c-0.9-0.4-1.7-0.9-2.3-1.6C3.1,12,2.8,11,2.8,9.8c0-1,0.3-1.9,0.8-2.7
	c0.5-0.8,1.3-1.5,2.4-2c1.1-0.5,2.4-0.7,4-0.7c1.1,0,2.2,0.2,3.3,0.5c1.1,0.3,2,0.8,2.8,1.3l-0.6,1.2c-0.8-0.6-1.7-1-2.7-1.3
	c-1-0.3-1.9-0.4-2.9-0.4c-1.9,0-3.3,0.4-4.3,1.1c-1,0.8-1.5,1.7-1.5,2.9c0,0.9,0.3,1.6,0.8,2.2c0.5,0.5,1.2,1,2,1.3
	c0.8,0.3,1.8,0.6,3.2,0.9c1.5,0.4,2.7,0.7,3.6,1.1c0.9,0.4,1.7,0.9,2.3,1.6c0.6,0.7,1,1.7,1,2.9c0,1-0.3,1.9-0.8,2.7
	c-0.5,0.8-1.4,1.5-2.5,2C12.7,24.9,11.3,25.1,9.7,25.1z"/>
<path class="st0" d="M76,14.7c0-6.1,4.7-10.6,11.2-10.6c6.4,0,11.2,4.5,11.2,10.6s-4.8,10.6-11.2,10.6C80.7,25.3,76,20.8,76,14.7z
	 M93.6,14.7c0-3.9-2.7-6.5-6.4-6.5c-3.6,0-6.4,2.7-6.4,6.5c0,3.9,2.7,6.5,6.4,6.5C90.8,21.3,93.6,18.6,93.6,14.7z"/>
<path class="st0" d="M118.1,17.1c0,4.9-3.4,8.1-7.8,8.1c-2.1,0-3.8-0.7-4.9-2V25H101V3.3h4.6v7.6c1.2-1.3,2.8-1.9,4.7-1.9
	C114.7,9,118.1,12.2,118.1,17.1z M113.5,17.1c0-2.7-1.7-4.3-4-4.3c-2.3,0-4,1.6-4,4.3c0,2.7,1.7,4.3,4,4.3
	C111.7,21.5,113.5,19.8,113.5,17.1z"/>
<path class="st0" d="M119.6,23.5l1.5-3.3c1.4,0.9,3.5,1.5,5.5,1.5c2.1,0,2.9-0.6,2.9-1.4c0-2.6-9.5,0.1-9.5-6.2c0-3,2.7-5.1,7.3-5.1
	c2.2,0,4.6,0.5,6,1.4l-1.5,3.2c-1.5-0.9-3.1-1.2-4.5-1.2c-2,0-2.9,0.6-2.9,1.5c0,2.7,9.5,0.1,9.5,6.3c0,2.9-2.7,5-7.4,5
	C123.7,25.2,121,24.5,119.6,23.5z"/>
<path class="st0" d="M151.9,18.4H140c0.4,2,2.1,3.2,4.5,3.2c1.7,0,2.9-0.5,3.9-1.5l2.4,2.6c-1.5,1.7-3.6,2.5-6.5,2.5
	c-5.4,0-9-3.4-9-8.1c0-4.7,3.6-8.1,8.4-8.1c4.6,0,8.2,3.1,8.2,8.1C152,17.5,151.9,18,151.9,18.4z M140,15.7h7.7
	c-0.3-2-1.8-3.3-3.9-3.3C141.8,12.5,140.3,13.7,140,15.7z"/>
<path class="st0" d="M164.1,9v4.2c-0.4,0-0.7-0.1-1-0.1c-2.5,0-4.2,1.4-4.2,4.4V25h-4.6V9.3h4.3v2.1C159.8,9.8,161.7,9,164.1,9z"/>
<path class="st0" d="M183.6,9.3L177,25h-4.7l-6.6-15.7h4.7l4.3,10.7l4.5-10.7H183.6z"/>
<path class="st0" d="M198.8,16v9h-4.3v-2c-0.8,1.4-2.5,2.2-4.8,2.2c-3.7,0-5.9-2-5.9-4.8c0-2.8,2-4.7,6.7-4.7h3.6
	c0-2-1.2-3.1-3.6-3.1c-1.7,0-3.4,0.6-4.5,1.5l-1.6-3.2c1.7-1.2,4.3-1.9,6.8-1.9C196.1,9,198.8,11.2,198.8,16z M194.3,20v-1.6h-3.1
	c-2.1,0-2.8,0.8-2.8,1.8c0,1.1,1,1.9,2.6,1.9C192.5,22.1,193.8,21.4,194.3,20z"/>
<path class="st0" d="M213.1,24.2c-0.9,0.7-2.3,1-3.7,1c-3.7,0-5.9-1.9-5.9-5.6v-6.4h-2.4V9.6h2.4V5.8h4.6v3.8h3.9v3.5h-3.9v6.4
	c0,1.3,0.7,2.1,2,2.1c0.7,0,1.3-0.2,1.8-0.6L213.1,24.2z"/>
<path class="st0" d="M214,17.1c0-4.7,3.6-8.1,8.6-8.1c5,0,8.6,3.4,8.6,8.1c0,4.7-3.6,8.1-8.6,8.1C217.7,25.2,214,21.8,214,17.1z
	 M226.7,17.1c0-2.7-1.7-4.3-4-4.3c-2.3,0-4,1.6-4,4.3c0,2.7,1.8,4.3,4,4.3C224.9,21.5,226.7,19.8,226.7,17.1z"/>
<path class="st0" d="M243.4,9v4.2c-0.4,0-0.7-0.1-1-0.1c-2.5,0-4.2,1.4-4.2,4.4V25h-4.6V9.3h4.3v2.1C239.1,9.8,241,9,243.4,9z"/>
<path class="st0" d="M262.9,9.3l-7.1,16.7c-1.5,3.8-3.7,4.9-6.5,4.9c-1.6,0-3.4-0.5-4.4-1.4l1.7-3.2c0.7,0.6,1.7,1,2.6,1
	c1.3,0,2-0.6,2.6-2l0.1-0.1L245,9.3h4.7l4.4,10.7l4.4-10.7H262.9z"/>
</svg>
