<?xml version="1.0" encoding="utf-8"?>
<!-- Generator: Adobe Illustrator 24.2.3, SVG Export Plug-In . SVG Version: 6.00 Build 0)  -->
<svg version="1.1" id="Layer_1" xmlns="http://www.w3.org/2000/svg" xmlns:xlink="http://www.w3.org/1999/xlink" x="0px" y="0px"
	 viewBox="0 0 750.8 74" style="enable-background:new 0 0 750.8 74;" xml:space="preserve">
<style type="text/css">
	.st0{fill:#FFFFFF;}
</style>
<g>
	<g>
		<path class="st0" d="M176.61,25.9c0-3.71-2.26-6.19-6.04-6.19c-1.95,0-3.3,0.41-4.09,0.76l0.38,1.6c0.84-0.36,1.8-0.63,3.4-0.63
			c2.23,0,4.16,1.24,4.21,4.26h-8.63c-0.03,0.23-0.08,0.58-0.08,1.04c0,2.26,1.07,5.79,5.08,5.79
			C174.42,32.52,176.61,29.6,176.61,25.9z M167.92,27.29h6.52c-0.18,1.55-1.17,3.63-3.43,3.63
			C168.51,30.92,167.9,28.72,167.92,27.29z M16.5,15.48c-0.72,0.74-1.08,1.88-1.08,3.41v0.85l-2.14,0.85v1.29h2.14v10.89h2.77V21.88
			h3.17v-2.09h-3.17v-0.85c0-0.77,0.14-1.36,0.43-1.74c0.29-0.39,0.74-0.58,1.37-0.58c0.62,0,1.27,0.11,1.95,0.33l0.73-2.09
			c-0.94-0.32-1.89-0.48-2.86-0.48C18.31,14.37,17.22,14.74,16.5,15.48z M24.96,17.86c0.49,0,0.86-0.14,1.13-0.41
			s0.41-0.64,0.41-1.11c0-0.49-0.14-0.87-0.41-1.14c-0.27-0.27-0.65-0.4-1.13-0.4c-0.5,0-0.89,0.13-1.16,0.4
			c-0.27,0.27-0.41,0.65-0.41,1.14c0,0.47,0.14,0.84,0.41,1.11S24.46,17.86,24.96,17.86z M23.56,32.77h2.76V19.79h-2.76V32.77z
			 M33.04,25.99c0-1.15,0.34-2.09,1.03-2.81c0.68-0.72,1.58-1.08,2.68-1.08c0.42,0,0.83,0.05,1.22,0.14l0.27-2.57
			c-0.36-0.08-0.82-0.12-1.37-0.12c-0.8,0-1.54,0.23-2.24,0.68c-0.69,0.45-1.25,1.07-1.68,1.84H32.8l-0.36-2.29h-2.16v12.98h2.76
			V25.99z M45.81,19.55c-1.85,0-3.3,0.61-4.36,1.82c-1.06,1.21-1.58,2.88-1.58,5c0,2.07,0.57,3.69,1.71,4.87
			c1.14,1.18,2.72,1.77,4.74,1.77c0.88,0,1.67-0.07,2.36-0.2c0.69-0.13,1.37-0.36,2.04-0.68v-2.24c-0.76,0.34-1.47,0.58-2.13,0.72
			c-0.66,0.14-1.38,0.22-2.14,0.22c-1.17,0-2.07-0.34-2.71-1.02c-0.64-0.68-0.98-1.65-1.02-2.91h8.65v-1.49
			c0-1.82-0.5-3.26-1.49-4.3C48.88,20.07,47.52,19.55,45.81,19.55z M42.76,24.91c0.1-1.06,0.42-1.87,0.95-2.43
			c0.53-0.56,1.23-0.83,2.11-0.83c0.88,0,1.57,0.28,2.07,0.83c0.5,0.55,0.76,1.36,0.77,2.44H42.76z M55.82,22.51
			c-0.56,0-0.99,0.15-1.29,0.46c-0.3,0.31-0.45,0.74-0.45,1.31c0,0.56,0.15,1.01,0.45,1.33c0.3,0.32,0.73,0.48,1.29,0.48
			c0.56,0,1-0.16,1.3-0.49c0.3-0.32,0.45-0.76,0.45-1.32c0-0.55-0.15-0.98-0.45-1.3C56.83,22.67,56.39,22.51,55.82,22.51z
			 M71.51,31.23c0.92-1.19,1.37-2.84,1.37-4.97c0-2.12-0.45-3.77-1.36-4.94c-0.9-1.17-2.17-1.76-3.79-1.76c-1.71,0-3,0.65-3.87,1.94
			h-0.12c0.02-0.17,0.04-0.58,0.07-1.21c0.03-0.63,0.05-1.11,0.05-1.43V14.5h-2.76v18.27h2.07l0.5-1.54h0.19
			c0.91,1.18,2.18,1.77,3.83,1.77C69.32,33.01,70.59,32.41,71.51,31.23z M64.62,29.69c-0.5-0.71-0.75-1.85-0.75-3.43v-0.19
			c0.02-1.53,0.27-2.63,0.76-3.28c0.49-0.65,1.29-0.98,2.4-0.98c2.02,0,3.03,1.48,3.03,4.43c0,1.46-0.25,2.58-0.76,3.36
			c-0.5,0.77-1.25,1.16-2.22,1.16C65.94,30.75,65.12,30.4,64.62,29.69z M83.56,30.96h0.09l0.55,1.81h1.97v-8.75
			c0-1.54-0.42-2.67-1.26-3.39c-0.84-0.72-2.09-1.08-3.74-1.08c-0.74,0-1.53,0.1-2.37,0.29c-0.84,0.19-1.61,0.47-2.31,0.84
			l0.89,1.97c0.56-0.27,1.15-0.5,1.76-0.69c0.61-0.2,1.25-0.29,1.91-0.29c0.81,0,1.41,0.21,1.8,0.62s0.58,1.03,0.58,1.86v0.69
			l-2.24,0.07c-2.04,0.06-3.55,0.43-4.54,1.12c-0.99,0.68-1.49,1.69-1.49,3.03c0,1.26,0.36,2.23,1.07,2.92
			c0.72,0.69,1.71,1.03,2.99,1.03c0.99,0,1.81-0.14,2.44-0.43C82.31,32.29,82.94,31.75,83.56,30.96z M78.55,30.42
			c-0.34-0.32-0.52-0.76-0.52-1.34c0-0.8,0.3-1.39,0.89-1.78c0.59-0.39,1.54-0.6,2.84-0.65l1.67-0.07v1.13
			c0,1.01-0.3,1.79-0.91,2.35c-0.61,0.56-1.41,0.84-2.41,0.84C79.41,30.89,78.9,30.73,78.55,30.42z M92.79,14.5h-2.76v18.27h2.76
			V14.5z M96.74,32.77h2.76V14.5h-2.76V32.77z M120.84,25.15h-6.03v2.35h6.03V25.15z M134.53,15.61l-6.4,17.16h2.61l6.39-17.16
			H134.53z M138.14,22.18l1.35-0.17c0.67-1.11,1.71-3.68,2.26-5.69l-2.19,0.22C139.29,18.26,138.67,20.76,138.14,22.18z
			 M147.62,18.94c0-0.77,0.14-1.36,0.43-1.74c0.29-0.39,0.74-0.58,1.37-0.58c0.4,0,0.81,0.06,1.23,0.15v1.43h7.5v-2.04h-6.51
			l0.45-1.3c-0.94-0.32-1.89-0.48-2.86-0.48c-1.48,0-2.58,0.37-3.3,1.11c-0.72,0.74-1.08,1.88-1.08,3.41v0.85l-2.14,0.85v1.29h2.14
			v10.89h2.77V21.88h3.17v-2.09h-3.17V18.94z M155.75,19.79h-2.76v12.98h2.76V19.79z M162.22,36.57h2.38
			c-1.07-1.45-1.9-3.07-2.48-4.86c-0.58-1.79-0.87-3.64-0.87-5.55c0-1.91,0.29-3.78,0.87-5.61c0.58-1.83,1.41-3.48,2.5-4.95h-2.41
			c-1.14,1.36-2.02,2.95-2.62,4.75c-0.61,1.81-0.91,3.75-0.91,5.82c0,2.04,0.3,3.95,0.9,5.73
			C160.19,33.69,161.07,35.24,162.22,36.57z M181.29,20.38c-0.6-1.81-1.48-3.4-2.63-4.77h-2.41c1.09,1.48,1.92,3.13,2.5,4.95
			c0.58,1.82,0.87,3.69,0.87,5.61c0,1.91-0.29,3.76-0.86,5.54c-0.58,1.78-1.4,3.41-2.48,4.87h2.38c1.14-1.31,2.02-2.86,2.62-4.64
			c0.61-1.78,0.91-3.69,0.91-5.75C182.19,24.13,181.89,22.19,181.29,20.38z M193.09,19.67c-0.36-0.08-0.82-0.12-1.37-0.12
			c-0.8,0-1.54,0.23-2.24,0.68c-0.69,0.45-1.25,1.07-1.68,1.84h-0.14l-0.36-2.29h-2.16v12.98h2.76v-6.79c0-1.15,0.34-2.09,1.03-2.81
			c0.68-0.72,1.58-1.08,2.68-1.08c0.42,0,0.83,0.05,1.22,0.14L193.09,19.67z M193.91,35.73l1.51-0.14c0.67-1.13,1.73-3.8,2.28-5.84
			l-2.35,0.24C195.08,31.74,194.44,34.31,193.91,35.73z M207.1,19.55c-1.71,0-3,0.65-3.87,1.94h-0.12c0.02-0.17,0.04-0.58,0.07-1.21
			c0.03-0.63,0.05-1.11,0.05-1.43V14.5h-2.76v18.27h2.07l0.5-1.54h0.19c0.91,1.18,2.18,1.77,3.83,1.77c1.63,0,2.9-0.59,3.82-1.78
			s1.37-2.84,1.37-4.97c0-2.12-0.45-3.77-1.36-4.94C209.99,20.14,208.72,19.55,207.1,19.55z M208.66,29.59
			c-0.5,0.77-1.25,1.16-2.22,1.16c-1.13,0-1.95-0.35-2.45-1.06c-0.5-0.71-0.75-1.85-0.75-3.43v-0.19c0.02-1.53,0.27-2.63,0.76-3.28
			c0.49-0.65,1.29-0.98,2.4-0.98c2.02,0,3.03,1.48,3.03,4.43C209.42,27.7,209.17,28.81,208.66,29.59z M217.58,32.18
			c0.93,0.55,2,0.82,3.22,0.82c1.94,0,3.46-0.59,4.54-1.78c1.09-1.19,1.63-2.84,1.63-4.97c0-2.05-0.55-3.68-1.64-4.89
			c-1.1-1.21-2.58-1.81-4.46-1.81c-1.96,0-3.49,0.59-4.57,1.77c-1.08,1.18-1.62,2.83-1.62,4.93c0,1.35,0.25,2.54,0.75,3.57
			C215.93,30.85,216.65,31.64,217.58,32.18z M218.3,22.96c0.52-0.77,1.36-1.15,2.52-1.15c2.21,0,3.31,1.48,3.31,4.45
			c0,3-1.1,4.5-3.29,4.5c-2.21,0-3.32-1.5-3.32-4.5C217.52,24.82,217.78,23.72,218.3,22.96z M220.78,16.09
			c0.82,0.84,1.71,1.54,2.68,2.11h1.87v-0.29c-1.51-1.51-2.51-2.7-3.01-3.56h-3.05c-0.49,0.82-1.49,2.01-2.98,3.56v0.29h1.85
			C219.09,17.6,219.98,16.89,220.78,16.09z M230.14,32.77h2.76V14.5h-2.76V32.77z M235.06,32.77h2.61l6.39-17.16h-2.59L235.06,32.77
			z M19.06,48.08c-0.5,0-0.98,0.13-1.45,0.4c-0.47,0.26-0.95,0.71-1.45,1.35h-0.08l0.17-1.59h-1.09l-1.83,8.58h1.31l0.79-3.72
			c0.17-0.82,0.43-1.53,0.76-2.11c0.34-0.58,0.73-1.03,1.17-1.34c0.44-0.31,0.89-0.47,1.36-0.47c0.41,0,0.7,0.1,0.89,0.3
			c0.19,0.2,0.28,0.46,0.28,0.79c0,0.21-0.05,0.58-0.16,1.13l-1.16,5.42h1.33l1.12-5.26c0.12-0.53,0.18-1,0.18-1.41
			c0-0.65-0.19-1.16-0.58-1.52C20.24,48.26,19.72,48.08,19.06,48.08z M27.15,48.13c-0.79,0-1.51,0.23-2.15,0.7
			c-0.65,0.47-1.16,1.14-1.54,2.01c-0.38,0.87-0.57,1.81-0.57,2.8c0,1.02,0.28,1.83,0.85,2.42c0.57,0.59,1.35,0.88,2.36,0.88
			c0.81,0,1.53-0.24,2.18-0.71c0.64-0.47,1.15-1.15,1.53-2.02c0.38-0.87,0.56-1.8,0.56-2.78c0-1.03-0.29-1.84-0.86-2.42
			C28.93,48.42,28.14,48.13,27.15,48.13z M28.63,53.66c-0.24,0.7-0.58,1.24-1.01,1.62c-0.43,0.38-0.92,0.57-1.46,0.57
			c-0.62,0-1.1-0.19-1.43-0.56c-0.33-0.37-0.5-0.9-0.5-1.58c0-0.84,0.12-1.6,0.37-2.29c0.25-0.69,0.6-1.22,1.05-1.61
			c0.45-0.39,0.96-0.58,1.53-0.58c0.56,0,1,0.19,1.33,0.56c0.33,0.37,0.49,0.86,0.49,1.46C29,52.15,28.88,52.95,28.63,53.66z
			 M37.78,51.95c-0.18,0.82-0.44,1.53-0.77,2.11c-0.34,0.58-0.73,1.03-1.17,1.35c-0.44,0.31-0.89,0.47-1.35,0.47
			c-0.77,0-1.15-0.37-1.15-1.12c0-0.26,0.05-0.62,0.14-1.09l1.17-5.44h-1.33l-1.14,5.29C32.05,54.1,32,54.55,32,54.87
			c0,0.67,0.19,1.19,0.57,1.55c0.38,0.36,0.91,0.54,1.57,0.54c0.5,0,0.98-0.13,1.44-0.38c0.46-0.26,0.95-0.71,1.46-1.36h0.09
			l-0.17,1.59h1.09l1.81-8.58h-1.3L37.78,51.95z M46.55,48.08c-0.5,0-0.98,0.13-1.45,0.4c-0.47,0.26-0.95,0.71-1.45,1.35h-0.08
			l0.17-1.59h-1.09l-1.83,8.58h1.31l0.79-3.72c0.17-0.82,0.43-1.53,0.76-2.11c0.34-0.58,0.73-1.03,1.17-1.34
			c0.44-0.31,0.89-0.47,1.36-0.47c0.41,0,0.7,0.1,0.89,0.3c0.19,0.2,0.28,0.46,0.28,0.79c0,0.21-0.05,0.58-0.16,1.13l-1.16,5.42
			h1.33l1.12-5.26c0.12-0.53,0.18-1,0.18-1.41c0-0.65-0.19-1.16-0.58-1.52C47.74,48.26,47.22,48.08,46.55,48.08z M58.01,60.7h1.09
			V44.64h-1.09V60.7z M71.48,48c-0.5,0-1.02,0.06-1.58,0.19c-0.56,0.13-1.07,0.31-1.54,0.56l0.59,1.31
			c0.38-0.18,0.77-0.33,1.17-0.46c0.41-0.13,0.83-0.2,1.28-0.2c0.54,0,0.94,0.14,1.2,0.41c0.26,0.27,0.39,0.69,0.39,1.24v0.46
			l-1.49,0.05c-1.36,0.04-2.37,0.29-3.03,0.74c-0.66,0.45-0.99,1.13-0.99,2.02c0,0.84,0.24,1.49,0.72,1.95
			c0.48,0.46,1.14,0.69,1.99,0.69c0.66,0,1.21-0.1,1.63-0.29c0.42-0.19,0.84-0.55,1.26-1.08h0.06l0.37,1.21h1.31v-5.83
			c0-1.03-0.28-1.78-0.84-2.26C73.41,48.24,72.58,48,71.48,48z M72.98,53.43c0,0.67-0.2,1.2-0.61,1.57
			c-0.4,0.37-0.94,0.56-1.61,0.56c-0.46,0-0.8-0.11-1.03-0.32c-0.23-0.21-0.34-0.51-0.34-0.9c0-0.53,0.2-0.93,0.59-1.19
			c0.39-0.26,1.02-0.4,1.89-0.43l1.11-0.05V53.43z M85.97,48c-1.14,0-2,0.43-2.58,1.29h-0.08c0.01-0.11,0.03-0.38,0.05-0.81
			c0.02-0.42,0.03-0.74,0.03-0.95v-2.9h-1.84v12.18h1.38l0.34-1.03h0.13c0.61,0.79,1.46,1.18,2.55,1.18c1.09,0,1.93-0.4,2.54-1.19
			c0.61-0.79,0.92-1.9,0.92-3.31c0-1.41-0.3-2.51-0.9-3.3C87.89,48.39,87.05,48,85.97,48z M87,54.69c-0.34,0.52-0.83,0.77-1.48,0.77
			c-0.76,0-1.3-0.24-1.64-0.71c-0.33-0.47-0.5-1.24-0.5-2.29v-0.13c0.01-1.02,0.18-1.75,0.5-2.19c0.33-0.44,0.86-0.65,1.6-0.65
			c1.35,0,2.02,0.98,2.02,2.95C87.51,53.43,87.34,54.18,87,54.69z M94.93,48c-0.5,0-1.02,0.06-1.58,0.19
			c-0.56,0.13-1.07,0.31-1.54,0.56l0.59,1.31c0.38-0.18,0.77-0.33,1.17-0.46c0.41-0.13,0.83-0.2,1.28-0.2c0.54,0,0.94,0.14,1.2,0.41
			c0.26,0.27,0.39,0.69,0.39,1.24v0.46l-1.49,0.05c-1.36,0.04-2.37,0.29-3.03,0.74c-0.66,0.45-0.99,1.13-0.99,2.02
			c0,0.84,0.24,1.49,0.72,1.95c0.48,0.46,1.14,0.69,1.99,0.69c0.66,0,1.21-0.1,1.63-0.29c0.42-0.19,0.84-0.55,1.26-1.08h0.06
			l0.37,1.21h1.31v-5.83c0-1.03-0.28-1.78-0.84-2.26C96.86,48.24,96.03,48,94.93,48z M96.42,53.43c0,0.67-0.2,1.2-0.61,1.57
			c-0.4,0.37-0.94,0.56-1.61,0.56c-0.46,0-0.8-0.11-1.03-0.32c-0.23-0.21-0.34-0.51-0.34-0.9c0-0.53,0.2-0.93,0.59-1.19
			c0.39-0.26,1.02-0.4,1.89-0.43l1.11-0.05V53.43z M100.83,56.81h1.84V44.64h-1.84V56.81z M105.3,56.81h1.84V44.64h-1.84V56.81z
			 M117.54,48c-1.31,0-2.32,0.39-3.04,1.18c-0.72,0.79-1.08,1.88-1.08,3.29c0,0.9,0.17,1.7,0.5,2.38c0.33,0.68,0.81,1.21,1.43,1.57
			c0.62,0.37,1.34,0.55,2.14,0.55c1.29,0,2.3-0.4,3.03-1.19c0.73-0.79,1.09-1.9,1.09-3.31c0-1.37-0.37-2.45-1.1-3.26
			C119.78,48.4,118.79,48,117.54,48z M117.52,55.47c-1.48,0-2.21-1-2.21-3c0-0.95,0.17-1.69,0.52-2.2c0.35-0.51,0.91-0.77,1.68-0.77
			c1.47,0,2.21,0.99,2.21,2.97C119.72,54.47,118.99,55.47,117.52,55.47z M124.83,45.29c-0.48,0.49-0.72,1.25-0.72,2.27v0.56
			l-1.42,0.56v0.86h1.42v7.26h1.85v-7.26h2.11v-1.39h-2.11v-0.56c0-0.52,0.1-0.9,0.29-1.16c0.19-0.26,0.49-0.39,0.91-0.39
			c0.41,0,0.85,0.07,1.3,0.22l0.49-1.39c-0.63-0.21-1.26-0.32-1.91-0.32C126.04,44.55,125.31,44.8,124.83,45.29z M139.52,56.81h1.84
			V44.64h-1.84V56.81z M134.81,45.29c-0.48,0.49-0.72,1.25-0.72,2.27v0.56l-1.42,0.56v0.86h1.42v7.26h1.85v-7.26h2.11v-1.39h-2.11
			v-0.56c0-0.52,0.1-0.9,0.29-1.16c0.19-0.26,0.49-0.39,0.91-0.39c0.41,0,0.85,0.07,1.3,0.22l0.49-1.39
			c-0.63-0.21-1.26-0.32-1.91-0.32C136.02,44.55,135.29,44.8,134.81,45.29z M147.39,48c-0.5,0-1.02,0.06-1.58,0.19
			c-0.56,0.13-1.07,0.31-1.54,0.56l0.59,1.31c0.38-0.18,0.77-0.33,1.17-0.46c0.41-0.13,0.83-0.2,1.28-0.2c0.54,0,0.94,0.14,1.2,0.41
			c0.26,0.27,0.39,0.69,0.39,1.24v0.46l-1.49,0.05c-1.36,0.04-2.37,0.29-3.03,0.74c-0.66,0.45-0.99,1.13-0.99,2.02
			c0,0.84,0.24,1.49,0.72,1.95c0.48,0.46,1.14,0.69,1.99,0.69c0.66,0,1.21-0.1,1.63-0.29c0.42-0.19,0.84-0.55,1.26-1.08h0.06
			l0.37,1.21h1.31v-5.83c0-1.03-0.28-1.78-0.84-2.26C149.32,48.24,148.49,48,147.39,48z M148.89,53.43c0,0.67-0.2,1.2-0.61,1.57
			c-0.4,0.37-0.94,0.56-1.61,0.56c-0.46,0-0.8-0.11-1.03-0.32c-0.23-0.21-0.34-0.51-0.34-0.9c0-0.53,0.2-0.93,0.59-1.19
			c0.39-0.26,1.02-0.4,1.89-0.43l1.11-0.05V53.43z M163.08,48c-0.6,0-1.13,0.12-1.6,0.36c-0.46,0.24-0.82,0.57-1.08,1h-0.13
			c-0.43-0.91-1.31-1.36-2.65-1.36c-0.55,0-1.05,0.11-1.51,0.34c-0.46,0.22-0.8,0.54-1.04,0.95h-0.09l-0.26-1.13h-1.44v8.66h1.84
			V52.5c0-1.07,0.17-1.84,0.5-2.3c0.33-0.46,0.85-0.69,1.56-0.69c0.53,0,0.92,0.16,1.17,0.49c0.25,0.33,0.38,0.82,0.38,1.48v5.34
			h1.85v-4.59c0-0.92,0.17-1.61,0.5-2.05c0.33-0.45,0.85-0.67,1.57-0.67c0.53,0,0.92,0.16,1.18,0.49c0.25,0.33,0.38,0.82,0.38,1.48
			v5.34h1.84v-5.64c0-1.07-0.24-1.87-0.71-2.39C164.87,48.26,164.12,48,163.08,48z M172.06,48c-1.23,0-2.2,0.4-2.9,1.21
			c-0.7,0.81-1.06,1.92-1.06,3.33c0,1.38,0.38,2.46,1.14,3.24c0.76,0.79,1.81,1.18,3.16,1.18c0.59,0,1.11-0.04,1.57-0.13
			c0.46-0.09,0.91-0.24,1.36-0.45v-1.49c-0.51,0.22-0.98,0.38-1.42,0.48c-0.44,0.1-0.92,0.14-1.43,0.14c-0.78,0-1.38-0.23-1.81-0.68
			c-0.43-0.45-0.65-1.1-0.68-1.94h5.77v-0.99c0-1.22-0.33-2.17-0.99-2.86C174.11,48.35,173.2,48,172.06,48z M170.02,51.57
			c0.07-0.71,0.28-1.25,0.63-1.62c0.35-0.37,0.82-0.56,1.4-0.56c0.58,0,1.04,0.18,1.38,0.55c0.33,0.37,0.51,0.91,0.52,1.62H170.02z
			 M185.62,48c-1.31,0-2.32,0.39-3.04,1.18c-0.72,0.79-1.08,1.88-1.08,3.29c0,0.9,0.17,1.7,0.5,2.38c0.33,0.68,0.81,1.21,1.43,1.57
			c0.62,0.37,1.34,0.55,2.14,0.55c1.29,0,2.3-0.4,3.03-1.19c0.73-0.79,1.09-1.9,1.09-3.31c0-1.37-0.37-2.45-1.1-3.26
			C187.87,48.4,186.88,48,185.62,48z M185.61,55.47c-1.48,0-2.21-1-2.21-3c0-0.95,0.17-1.69,0.52-2.2c0.35-0.51,0.91-0.77,1.68-0.77
			c1.47,0,2.21,0.99,2.21,2.97C187.8,54.47,187.07,55.47,185.61,55.47z M194.71,48.46c-0.46,0.3-0.84,0.71-1.12,1.23h-0.09
			l-0.24-1.53h-1.44v8.66h1.84v-4.52c0-0.77,0.23-1.39,0.68-1.87c0.46-0.48,1.05-0.72,1.79-0.72c0.28,0,0.55,0.03,0.81,0.09
			l0.18-1.71c-0.24-0.05-0.55-0.08-0.92-0.08C195.66,48,195.17,48.15,194.71,48.46z M203.98,45.29c-0.48,0.49-0.72,1.25-0.72,2.27
			v0.56l-1.42,0.56v0.86h1.42v7.26h1.85v-7.26h2.11v-1.39h-2.11v-0.56c0-0.52,0.1-0.9,0.29-1.16c0.19-0.26,0.49-0.39,0.91-0.39
			c0.41,0,0.85,0.07,1.3,0.22l0.49-1.39c-0.63-0.21-1.26-0.32-1.91-0.32C205.2,44.55,204.46,44.8,203.98,45.29z M209.63,44.84
			c-0.33,0-0.59,0.09-0.77,0.27c-0.18,0.18-0.27,0.43-0.27,0.76c0,0.31,0.09,0.56,0.27,0.74c0.18,0.18,0.44,0.27,0.77,0.27
			c0.32,0,0.58-0.09,0.76-0.27c0.18-0.18,0.27-0.43,0.27-0.74c0-0.33-0.09-0.58-0.27-0.76C210.2,44.93,209.95,44.84,209.63,44.84z
			 M208.7,56.81h1.84v-8.66h-1.84V56.81z M216.07,48.46c-0.46,0.3-0.84,0.71-1.12,1.23h-0.09l-0.24-1.53h-1.44v8.66h1.84v-4.52
			c0-0.77,0.23-1.39,0.68-1.87c0.46-0.48,1.05-0.72,1.79-0.72c0.28,0,0.55,0.03,0.81,0.09l0.18-1.71c-0.24-0.05-0.55-0.08-0.92-0.08
			C217.03,48,216.53,48.15,216.07,48.46z M223.53,48c-1.23,0-2.2,0.4-2.9,1.21c-0.7,0.81-1.06,1.92-1.06,3.33
			c0,1.38,0.38,2.46,1.14,3.24c0.76,0.79,1.81,1.18,3.16,1.18c0.59,0,1.11-0.04,1.57-0.13c0.46-0.09,0.91-0.24,1.36-0.45v-1.49
			c-0.51,0.22-0.98,0.38-1.42,0.48c-0.44,0.1-0.92,0.14-1.43,0.14c-0.78,0-1.38-0.23-1.81-0.68c-0.43-0.45-0.65-1.1-0.68-1.94h5.77
			v-0.99c0-1.22-0.33-2.17-0.99-2.86C225.57,48.35,224.67,48,223.53,48z M221.49,51.57c0.07-0.71,0.28-1.25,0.63-1.62
			c0.35-0.37,0.82-0.56,1.4-0.56c0.58,0,1.04,0.18,1.38,0.55c0.33,0.37,0.51,0.91,0.52,1.62H221.49z M230.2,54.65
			c-0.38,0-0.66,0.1-0.86,0.31c-0.2,0.2-0.3,0.5-0.3,0.88c0,0.38,0.1,0.67,0.3,0.88c0.2,0.21,0.49,0.32,0.86,0.32
			c0.38,0,0.66-0.11,0.86-0.32c0.2-0.22,0.3-0.51,0.3-0.88c0-0.37-0.1-0.65-0.3-0.86C230.87,54.76,230.58,54.65,230.2,54.65z
			 M248.6,60.58h1.41V44.67h-1.41V60.58z M259.65,49.5h0.84l1.2-4.13h-1.47L259.65,49.5z M262.38,49.5h0.84l1.21-4.13h-1.48
			L262.38,49.5z M271.33,49.58h-0.09c-0.21-0.49-0.5-0.86-0.88-1.12c-0.38-0.26-0.8-0.39-1.28-0.39c-0.78,0-1.49,0.26-2.14,0.79
			c-0.65,0.53-1.16,1.25-1.53,2.18c-0.37,0.93-0.56,1.94-0.56,3.02c0,0.9,0.21,1.6,0.62,2.12c0.41,0.52,0.98,0.77,1.71,0.77
			c1.03,0,2.02-0.6,2.95-1.79h0.06l-0.2,1.64h1.04l1.82-8.58h-0.99L271.33,49.58z M270.33,53.27c-0.31,0.77-0.72,1.4-1.22,1.89
			c-0.5,0.48-1,0.72-1.51,0.72c-0.44,0-0.79-0.15-1.03-0.44c-0.25-0.29-0.37-0.74-0.37-1.33c0-0.85,0.13-1.66,0.4-2.43
			c0.27-0.77,0.63-1.37,1.1-1.82c0.47-0.45,0.97-0.67,1.51-0.67c0.47,0,0.86,0.16,1.15,0.48c0.29,0.32,0.44,0.75,0.44,1.28
			C270.8,51.72,270.64,52.5,270.33,53.27z M280.25,48.82c-0.68,0.49-1.21,1.18-1.6,2.06c-0.39,0.88-0.58,1.84-0.58,2.89
			c0,1.02,0.28,1.81,0.84,2.36c0.56,0.56,1.34,0.84,2.36,0.84c0.79,0,1.51-0.16,2.16-0.49v-1.12c-0.32,0.14-0.65,0.26-0.99,0.37
			c-0.33,0.1-0.69,0.16-1.06,0.16c-0.61,0-1.09-0.19-1.44-0.56c-0.35-0.37-0.52-0.89-0.52-1.56c0-0.83,0.14-1.61,0.41-2.32
			c0.27-0.71,0.65-1.27,1.13-1.67c0.48-0.4,1.02-0.6,1.6-0.6c0.52,0,1.09,0.13,1.71,0.4l0.37-1.1c-0.68-0.27-1.38-0.4-2.1-0.4
			C281.7,48.08,280.93,48.33,280.25,48.82z M289.51,48.26c-0.27,0.12-0.53,0.28-0.77,0.5c-0.25,0.22-0.56,0.57-0.93,1.07h-0.08
			l0.17-1.59h-1.09l-1.83,8.58h1.31l0.84-3.93c0.15-0.68,0.37-1.3,0.68-1.85c0.31-0.56,0.67-0.99,1.09-1.3
			c0.41-0.31,0.86-0.47,1.33-0.47c0.27,0,0.55,0.03,0.82,0.1l0.28-1.17c-0.27-0.07-0.58-0.11-0.94-0.11
			C290.08,48.08,289.78,48.14,289.51,48.26z M298.11,49.58h-0.09c-0.21-0.49-0.5-0.86-0.88-1.12c-0.38-0.26-0.8-0.39-1.28-0.39
			c-0.78,0-1.49,0.26-2.14,0.79c-0.65,0.53-1.16,1.25-1.53,2.18c-0.37,0.93-0.56,1.94-0.56,3.02c0,0.9,0.21,1.6,0.62,2.12
			c0.41,0.52,0.98,0.77,1.71,0.77c1.03,0,2.02-0.6,2.95-1.79h0.06l-0.2,1.64h1.04l1.82-8.58h-0.99L298.11,49.58z M297.11,53.27
			c-0.31,0.77-0.72,1.4-1.22,1.89c-0.5,0.48-1,0.72-1.51,0.72c-0.44,0-0.79-0.15-1.03-0.44c-0.25-0.29-0.37-0.74-0.37-1.33
			c0-0.85,0.13-1.66,0.4-2.43c0.27-0.77,0.63-1.37,1.1-1.82c0.47-0.45,0.97-0.67,1.51-0.67c0.47,0,0.86,0.16,1.15,0.48
			c0.29,0.32,0.44,0.75,0.44,1.28C297.58,51.72,297.43,52.5,297.11,53.27z M301.8,48.74c-0.53,0.44-0.79,1.02-0.79,1.74
			c0,0.5,0.14,0.93,0.42,1.3c0.28,0.37,0.76,0.74,1.44,1.12c0.61,0.35,1,0.63,1.18,0.84c0.18,0.2,0.27,0.45,0.27,0.75
			c0,0.41-0.17,0.74-0.5,1c-0.33,0.26-0.83,0.39-1.49,0.39c-0.36,0-0.75-0.06-1.17-0.18c-0.42-0.12-0.82-0.29-1.18-0.51v1.24
			c0.71,0.36,1.51,0.54,2.39,0.54c1.05,0,1.86-0.23,2.44-0.68c0.58-0.46,0.86-1.09,0.86-1.91c0-0.32-0.06-0.61-0.18-0.87
			c-0.12-0.26-0.3-0.5-0.54-0.72c-0.24-0.22-0.64-0.49-1.2-0.81c-0.58-0.33-0.96-0.6-1.15-0.81c-0.19-0.21-0.28-0.46-0.28-0.75
			c0-0.36,0.14-0.65,0.41-0.88c0.28-0.23,0.66-0.34,1.14-0.34c0.62,0,1.19,0.11,1.72,0.34l0.44,0.2l0.42-1.07
			c-0.83-0.39-1.69-0.58-2.58-0.58C303.02,48.08,302.33,48.3,301.8,48.74z M312.98,48.1c-0.52,0-1.02,0.14-1.5,0.41
			c-0.48,0.28-0.96,0.74-1.45,1.38h-0.09c0.14-0.53,0.26-1.03,0.37-1.48c0.11-0.45,0.21-0.89,0.3-1.3c0.09-0.41,0.18-0.82,0.27-1.22
			c0.09-0.4,0.18-0.82,0.27-1.24h-1.31l-2.58,12.18h1.31l0.79-3.7c0.17-0.83,0.43-1.54,0.76-2.12s0.73-1.03,1.17-1.34
			c0.44-0.31,0.89-0.46,1.36-0.46c0.77,0,1.15,0.39,1.15,1.16c0,0.21-0.05,0.57-0.14,1.06l-1.16,5.42h1.31
			c0.55-2.5,0.93-4.25,1.13-5.26c0.12-0.54,0.18-0.98,0.18-1.3c0-0.69-0.19-1.22-0.56-1.6C314.19,48.28,313.66,48.1,312.98,48.1z
			 M321.05,48.08c-0.77,0-1.48,0.25-2.12,0.75c-0.64,0.5-1.16,1.2-1.55,2.1c-0.39,0.9-0.58,1.84-0.58,2.82
			c0,1.01,0.27,1.79,0.82,2.36c0.55,0.57,1.3,0.85,2.26,0.85c0.45,0,0.87-0.05,1.24-0.14s0.81-0.25,1.3-0.48v-1.14
			c-0.52,0.25-0.95,0.42-1.3,0.52c-0.35,0.09-0.68,0.14-1.01,0.14c-0.67,0-1.17-0.19-1.49-0.58s-0.48-0.92-0.48-1.6l0.03-0.63h0.26
			c1.61,0,2.85-0.27,3.72-0.8c0.87-0.53,1.3-1.27,1.3-2.21c0-0.62-0.2-1.1-0.6-1.45C322.45,48.25,321.85,48.08,321.05,48.08z
			 M321.21,51.51c-0.63,0.31-1.55,0.47-2.74,0.47h-0.09c0.25-0.87,0.61-1.55,1.08-2.04c0.47-0.49,0.98-0.74,1.51-0.74
			c0.41,0,0.71,0.09,0.9,0.27c0.19,0.18,0.29,0.41,0.29,0.69C322.16,50.75,321.84,51.2,321.21,51.51z M331.57,47.44
			c-0.15,0.62-0.26,1.34-0.35,2.14h-0.08c-0.45-0.99-1.19-1.49-2.2-1.49c-0.79,0-1.51,0.25-2.15,0.76
			c-0.64,0.51-1.15,1.22-1.52,2.15c-0.38,0.93-0.56,1.95-0.56,3.07c0,0.91,0.2,1.62,0.61,2.13c0.41,0.51,0.97,0.77,1.7,0.77
			c0.49,0,0.97-0.14,1.42-0.41c0.46-0.27,0.95-0.73,1.48-1.39h0.06l-0.17,1.64h1.09l2.58-12.18h-1.3L331.57,47.44z M330.22,53.28
			c-0.31,0.76-0.72,1.38-1.24,1.87c-0.52,0.49-1.03,0.73-1.52,0.73c-0.93,0-1.4-0.59-1.4-1.78c0-0.86,0.14-1.68,0.41-2.46
			c0.27-0.78,0.64-1.39,1.09-1.82c0.45-0.43,0.94-0.65,1.47-0.65c0.54,0,0.95,0.15,1.23,0.45c0.28,0.3,0.42,0.74,0.42,1.32
			C330.67,51.75,330.52,52.52,330.22,53.28z M341.36,46.26h-0.77l-0.98,1.78l-1.45,0.61l-0.11,0.57h1.35l-0.99,4.71
			c-0.09,0.44-0.14,0.83-0.14,1.17c0,0.62,0.17,1.08,0.52,1.39c0.35,0.31,0.85,0.47,1.5,0.47c0.16,0,0.37-0.03,0.63-0.08
			c0.26-0.05,0.48-0.11,0.66-0.19V55.7c-0.46,0.14-0.84,0.2-1.13,0.2c-0.27,0-0.48-0.08-0.63-0.23c-0.15-0.16-0.23-0.38-0.23-0.67
			c0-0.23,0.05-0.58,0.14-1.03l1.01-4.73h2.14l0.2-0.99h-2.14L341.36,46.26z M349.8,49.58h-0.09c-0.21-0.49-0.5-0.86-0.88-1.12
			s-0.8-0.39-1.28-0.39c-0.78,0-1.49,0.26-2.14,0.79c-0.65,0.53-1.16,1.25-1.53,2.18c-0.37,0.93-0.56,1.94-0.56,3.02
			c0,0.9,0.21,1.6,0.62,2.12c0.41,0.52,0.98,0.77,1.71,0.77c1.03,0,2.02-0.6,2.95-1.79h0.06l-0.2,1.64h1.04l1.82-8.58h-0.99
			L349.8,49.58z M348.8,53.27c-0.31,0.77-0.72,1.4-1.22,1.89c-0.5,0.48-1,0.72-1.51,0.72c-0.44,0-0.79-0.15-1.03-0.44
			c-0.25-0.29-0.37-0.74-0.37-1.33c0-0.85,0.13-1.66,0.4-2.43c0.27-0.77,0.63-1.37,1.1-1.82c0.47-0.45,0.97-0.67,1.51-0.67
			c0.47,0,0.86,0.16,1.15,0.48c0.29,0.32,0.44,0.75,0.44,1.28C349.27,51.72,349.11,52.5,348.8,53.27z M357.8,48.08
			c-0.5,0-0.98,0.13-1.45,0.4c-0.47,0.26-0.95,0.71-1.45,1.35h-0.08l0.17-1.59h-1.09l-1.83,8.58h1.31l0.79-3.72
			c0.17-0.82,0.43-1.53,0.76-2.11c0.34-0.58,0.73-1.03,1.17-1.34c0.44-0.31,0.89-0.47,1.36-0.47c0.41,0,0.7,0.1,0.89,0.3
			c0.19,0.2,0.28,0.46,0.28,0.79c0,0.21-0.05,0.58-0.16,1.13l-1.16,5.42h1.33l1.12-5.26c0.12-0.53,0.18-1,0.18-1.41
			c0-0.65-0.19-1.16-0.58-1.52C358.99,48.26,358.46,48.08,357.8,48.08z M367.56,48.24l-4.12,4.2h-0.03c0.23-0.67,0.5-1.7,0.8-3.09
			c0.3-1.39,0.63-2.96,1.01-4.71h-1.33l-2.58,12.18h1.33l0.64-3.14l1.19-0.96l1.84,4.1h1.46l-2.31-4.92l3.67-3.65H367.56z
			 M373.7,48.08c-0.77,0-1.48,0.25-2.12,0.75c-0.64,0.5-1.16,1.2-1.55,2.1c-0.39,0.9-0.58,1.84-0.58,2.82
			c0,1.01,0.27,1.79,0.82,2.36c0.55,0.57,1.3,0.85,2.26,0.85c0.45,0,0.87-0.05,1.24-0.14c0.38-0.09,0.81-0.25,1.3-0.48v-1.14
			c-0.52,0.25-0.95,0.42-1.3,0.52c-0.35,0.09-0.68,0.14-1.01,0.14c-0.67,0-1.17-0.19-1.49-0.58c-0.32-0.38-0.48-0.92-0.48-1.6
			l0.03-0.63h0.26c1.61,0,2.85-0.27,3.72-0.8c0.87-0.53,1.3-1.27,1.3-2.21c0-0.62-0.2-1.1-0.6-1.45
			C375.09,48.25,374.49,48.08,373.7,48.08z M373.85,51.51c-0.63,0.31-1.55,0.47-2.74,0.47h-0.09c0.25-0.87,0.61-1.55,1.08-2.04
			c0.47-0.49,0.98-0.74,1.51-0.74c0.41,0,0.71,0.09,0.9,0.27c0.19,0.18,0.29,0.41,0.29,0.69C374.8,50.75,374.48,51.2,373.85,51.51z
			 M381.57,48.26c-0.27,0.12-0.53,0.28-0.77,0.5c-0.25,0.22-0.56,0.57-0.93,1.07h-0.08l0.17-1.59h-1.09l-1.83,8.58h1.31l0.84-3.93
			c0.15-0.68,0.37-1.3,0.68-1.85c0.31-0.56,0.67-0.99,1.09-1.3c0.41-0.31,0.86-0.47,1.33-0.47c0.27,0,0.55,0.03,0.82,0.1l0.28-1.17
			c-0.27-0.07-0.58-0.11-0.94-0.11C382.14,48.08,381.84,48.14,381.57,48.26z M389.5,53.07c1.61,0,2.85-0.27,3.72-0.8
			c0.87-0.53,1.3-1.27,1.3-2.21c0-0.62-0.2-1.1-0.6-1.45c-0.4-0.35-1-0.52-1.8-0.52c-0.77,0-1.48,0.25-2.12,0.75
			c-0.64,0.5-1.16,1.2-1.55,2.1c-0.39,0.9-0.58,1.84-0.58,2.82c0,1.01,0.27,1.79,0.82,2.36c0.55,0.57,1.3,0.85,2.26,0.85
			c0.45,0,0.87-0.05,1.24-0.14s0.81-0.25,1.3-0.48v-1.14c-0.52,0.25-0.95,0.42-1.3,0.52c-0.35,0.09-0.68,0.14-1.01,0.14
			c-0.67,0-1.17-0.19-1.49-0.58c-0.32-0.38-0.48-0.92-0.48-1.6l0.03-0.63H389.5z M390.52,49.93c0.47-0.49,0.98-0.74,1.51-0.74
			c0.41,0,0.71,0.09,0.9,0.27c0.19,0.18,0.29,0.41,0.29,0.69c0,0.59-0.32,1.04-0.95,1.35c-0.63,0.31-1.55,0.47-2.74,0.47h-0.09
			C389.69,51.11,390.05,50.43,390.52,49.93z M403.06,48.24h-1.52l-2.58,3.22l-1.36-3.22h-1.33l1.87,4.16l-3.72,4.42h1.53l2.71-3.4
			l1.5,3.4h1.31l-1.97-4.36L403.06,48.24z M408.81,48.1c-1.01,0-1.98,0.59-2.91,1.78h-0.06l0.2-1.64h-1.09l-2.63,12.43h1.3
			c0.56-2.66,0.86-4.1,0.9-4.34c0.04-0.23,0.07-0.42,0.08-0.55l0.03-0.3h0.08c0.21,0.47,0.5,0.83,0.88,1.1
			c0.38,0.26,0.82,0.39,1.33,0.39c0.8,0,1.52-0.26,2.16-0.77c0.64-0.51,1.13-1.23,1.49-2.16c0.36-0.92,0.54-1.94,0.54-3.04
			c0-0.92-0.21-1.63-0.62-2.14C410.09,48.35,409.53,48.1,408.81,48.1z M409.37,53.44c-0.27,0.78-0.63,1.38-1.08,1.8
			c-0.45,0.42-0.93,0.63-1.44,0.63c-0.55,0-0.97-0.15-1.26-0.46c-0.29-0.31-0.43-0.74-0.43-1.32c0-0.79,0.15-1.56,0.46-2.31
			c0.31-0.75,0.72-1.37,1.24-1.87c0.52-0.5,1.03-0.74,1.53-0.74c0.93,0,1.39,0.59,1.39,1.78C409.78,51.84,409.64,52.66,409.37,53.44
			z M412.36,56.81h1.31l2.6-12.18h-1.31L412.36,56.81z M421.01,48.13c-0.79,0-1.51,0.23-2.15,0.7c-0.65,0.47-1.16,1.14-1.54,2.01
			c-0.38,0.87-0.57,1.81-0.57,2.8c0,1.02,0.28,1.83,0.85,2.42c0.57,0.59,1.35,0.88,2.36,0.88c0.81,0,1.53-0.24,2.18-0.71
			c0.64-0.47,1.15-1.15,1.53-2.02c0.38-0.87,0.56-1.8,0.56-2.78c0-1.03-0.29-1.84-0.86-2.42C422.79,48.42,422.01,48.13,421.01,48.13
			z M422.5,53.66c-0.24,0.7-0.58,1.24-1.01,1.62c-0.43,0.38-0.92,0.57-1.46,0.57c-0.62,0-1.1-0.19-1.43-0.56
			c-0.33-0.37-0.5-0.9-0.5-1.58c0-0.84,0.12-1.6,0.37-2.29c0.25-0.69,0.6-1.22,1.05-1.61c0.45-0.39,0.96-0.58,1.53-0.58
			c0.56,0,1,0.19,1.33,0.56c0.33,0.37,0.49,0.86,0.49,1.46C422.86,52.15,422.74,52.95,422.5,53.66z M432.61,47.44
			c-0.15,0.62-0.26,1.34-0.35,2.14h-0.08c-0.45-0.99-1.19-1.49-2.2-1.49c-0.79,0-1.51,0.25-2.15,0.76
			c-0.64,0.51-1.15,1.22-1.52,2.15c-0.38,0.93-0.56,1.95-0.56,3.07c0,0.91,0.2,1.62,0.61,2.13c0.41,0.51,0.97,0.77,1.7,0.77
			c0.49,0,0.97-0.14,1.42-0.41c0.46-0.27,0.95-0.73,1.48-1.39h0.06l-0.17,1.64h1.09l2.58-12.18h-1.3L432.61,47.44z M431.25,53.28
			c-0.31,0.76-0.72,1.38-1.24,1.87c-0.52,0.49-1.03,0.73-1.52,0.73c-0.93,0-1.4-0.59-1.4-1.78c0-0.86,0.14-1.68,0.41-2.46
			c0.27-0.78,0.64-1.39,1.09-1.82c0.45-0.43,0.94-0.65,1.47-0.65c0.54,0,0.95,0.15,1.23,0.45c0.28,0.3,0.42,0.74,0.42,1.32
			C431.71,51.75,431.55,52.52,431.25,53.28z M439.24,48.08c-0.77,0-1.48,0.25-2.12,0.75c-0.64,0.5-1.16,1.2-1.55,2.1
			c-0.39,0.9-0.58,1.84-0.58,2.82c0,1.01,0.27,1.79,0.82,2.36c0.55,0.57,1.3,0.85,2.26,0.85c0.45,0,0.87-0.05,1.24-0.14
			s0.81-0.25,1.3-0.48v-1.14c-0.52,0.25-0.95,0.42-1.3,0.52c-0.35,0.09-0.68,0.14-1.01,0.14c-0.67,0-1.17-0.19-1.49-0.58
			s-0.48-0.92-0.48-1.6l0.03-0.63h0.26c1.61,0,2.85-0.27,3.72-0.8c0.87-0.53,1.3-1.27,1.3-2.21c0-0.62-0.2-1.1-0.6-1.45
			C440.64,48.25,440.04,48.08,439.24,48.08z M439.4,51.51c-0.63,0.31-1.55,0.47-2.74,0.47h-0.09c0.25-0.87,0.61-1.55,1.08-2.04
			c0.47-0.49,0.98-0.74,1.51-0.74c0.41,0,0.71,0.09,0.9,0.27c0.19,0.18,0.29,0.41,0.29,0.69C440.35,50.75,440.03,51.2,439.4,51.51z
			 M449.76,47.44c-0.15,0.62-0.26,1.34-0.35,2.14h-0.08c-0.45-0.99-1.19-1.49-2.2-1.49c-0.79,0-1.51,0.25-2.15,0.76
			c-0.64,0.51-1.15,1.22-1.52,2.15c-0.38,0.93-0.56,1.95-0.56,3.07c0,0.91,0.2,1.62,0.61,2.13c0.41,0.51,0.97,0.77,1.7,0.77
			c0.49,0,0.97-0.14,1.42-0.41c0.46-0.27,0.95-0.73,1.48-1.39h0.06L448,56.81h1.09l2.58-12.18h-1.3L449.76,47.44z M448.4,53.28
			c-0.31,0.76-0.72,1.38-1.24,1.87c-0.52,0.49-1.03,0.73-1.52,0.73c-0.93,0-1.4-0.59-1.4-1.78c0-0.86,0.14-1.68,0.41-2.46
			s0.64-1.39,1.09-1.82c0.45-0.43,0.94-0.65,1.47-0.65c0.54,0,0.95,0.15,1.23,0.45c0.28,0.3,0.42,0.74,0.42,1.32
			C448.86,51.75,448.71,52.52,448.4,53.28z M459.11,45.05c-0.27,0-0.48,0.09-0.65,0.28c-0.17,0.19-0.25,0.42-0.25,0.72
			c0,0.23,0.07,0.42,0.2,0.54c0.14,0.13,0.31,0.19,0.52,0.19c0.23,0,0.43-0.1,0.61-0.3c0.17-0.2,0.26-0.44,0.26-0.73
			C459.8,45.29,459.57,45.05,459.11,45.05z M456.01,56.81h1.31l1.83-8.58h-1.31L456.01,56.81z M465.81,48.08
			c-0.5,0-0.98,0.13-1.45,0.4c-0.47,0.26-0.95,0.71-1.45,1.35h-0.08l0.17-1.59h-1.09l-1.83,8.58h1.31l0.79-3.72
			c0.17-0.82,0.43-1.53,0.76-2.11c0.34-0.58,0.73-1.03,1.17-1.34c0.44-0.31,0.89-0.47,1.36-0.47c0.41,0,0.7,0.1,0.89,0.3
			c0.19,0.2,0.28,0.46,0.28,0.79c0,0.21-0.05,0.58-0.16,1.13l-1.16,5.42h1.33l1.12-5.26c0.12-0.53,0.18-1,0.18-1.41
			c0-0.65-0.19-1.16-0.58-1.52C466.99,48.26,466.47,48.08,465.81,48.08z M480.28,49.58h-0.09c-0.21-0.49-0.5-0.86-0.88-1.12
			s-0.8-0.39-1.28-0.39c-0.78,0-1.49,0.26-2.14,0.79c-0.65,0.53-1.16,1.25-1.53,2.18c-0.37,0.93-0.56,1.94-0.56,3.02
			c0,0.9,0.21,1.6,0.62,2.12c0.41,0.52,0.98,0.77,1.71,0.77c1.03,0,2.02-0.6,2.95-1.79h0.06l-0.2,1.64h1.04l1.82-8.58h-0.99
			L480.28,49.58z M479.28,53.27c-0.31,0.77-0.72,1.4-1.22,1.89c-0.5,0.48-1,0.72-1.51,0.72c-0.44,0-0.79-0.15-1.03-0.44
			c-0.25-0.29-0.37-0.74-0.37-1.33c0-0.85,0.13-1.66,0.4-2.43c0.27-0.77,0.63-1.37,1.1-1.82c0.47-0.45,0.97-0.67,1.51-0.67
			c0.47,0,0.86,0.16,1.15,0.48c0.29,0.32,0.44,0.75,0.44,1.28C479.75,51.72,479.59,52.5,479.28,53.27z M494.84,45.05
			c-0.27,0-0.48,0.09-0.65,0.28c-0.17,0.19-0.25,0.42-0.25,0.72c0,0.23,0.07,0.42,0.2,0.54c0.14,0.13,0.31,0.19,0.52,0.19
			c0.23,0,0.43-0.1,0.61-0.3c0.17-0.2,0.26-0.44,0.26-0.73C495.53,45.29,495.3,45.05,494.84,45.05z M491.74,56.81h1.31l1.83-8.58
			h-1.31L491.74,56.81z M490.05,48.24l0.2-0.85c0.15-0.67,0.35-1.14,0.59-1.39c0.24-0.25,0.59-0.38,1.04-0.38
			c0.32,0,0.68,0.08,1.07,0.23l0.34-1.01c-0.17-0.07-0.4-0.14-0.7-0.2c-0.3-0.06-0.56-0.09-0.77-0.09c-0.83,0-1.46,0.22-1.89,0.65
			c-0.43,0.43-0.76,1.17-1,2.21l-0.18,0.78l-1.61,0.52l-0.1,0.52h1.51l-1.78,8.47c-0.13,0.6-0.3,1.06-0.52,1.39
			c-0.21,0.32-0.52,0.49-0.92,0.49c-0.25,0-0.54-0.06-0.88-0.17v1.1c0.29,0.11,0.62,0.16,0.98,0.16c0.69,0,1.24-0.23,1.67-0.68
			s0.74-1.17,0.94-2.16l1.82-8.59h1.85l0.2-0.99H490.05z M500.36,48.26c-0.27,0.12-0.53,0.28-0.77,0.5
			c-0.25,0.22-0.56,0.57-0.93,1.07h-0.08l0.17-1.59h-1.09l-1.83,8.58h1.31l0.84-3.93c0.15-0.68,0.37-1.3,0.68-1.85
			c0.31-0.56,0.67-0.99,1.09-1.3c0.41-0.31,0.86-0.47,1.33-0.47c0.27,0,0.55,0.03,0.82,0.1l0.28-1.17
			c-0.27-0.07-0.58-0.11-0.94-0.11C500.92,48.08,500.63,48.14,500.36,48.26z M506.73,48.08c-0.77,0-1.48,0.25-2.12,0.75
			c-0.64,0.5-1.16,1.2-1.55,2.1c-0.39,0.9-0.58,1.84-0.58,2.82c0,1.01,0.27,1.79,0.82,2.36c0.55,0.57,1.3,0.85,2.26,0.85
			c0.45,0,0.87-0.05,1.24-0.14s0.81-0.25,1.3-0.48v-1.14c-0.52,0.25-0.95,0.42-1.3,0.52c-0.35,0.09-0.68,0.14-1.01,0.14
			c-0.67,0-1.17-0.19-1.49-0.58s-0.48-0.92-0.48-1.6l0.03-0.63h0.26c1.61,0,2.85-0.27,3.72-0.8c0.87-0.53,1.3-1.27,1.3-2.21
			c0-0.62-0.2-1.1-0.6-1.45C508.13,48.25,507.53,48.08,506.73,48.08z M506.88,51.51c-0.63,0.31-1.55,0.47-2.74,0.47h-0.09
			c0.25-0.87,0.61-1.55,1.08-2.04c0.47-0.49,0.98-0.74,1.51-0.74c0.41,0,0.71,0.09,0.9,0.27c0.19,0.18,0.29,0.41,0.29,0.69
			C507.83,50.75,507.52,51.2,506.88,51.51z M515.74,48.1c-0.5,0-0.99,0.14-1.46,0.43c-0.47,0.29-0.95,0.74-1.44,1.36h-0.07
			c0.25-0.9,0.45-1.68,0.59-2.35c0.14-0.67,0.35-1.64,0.61-2.9h-1.31l-2.58,12.18h0.98l0.55-1.33h0.08
			c0.19,0.46,0.48,0.82,0.86,1.09c0.38,0.27,0.83,0.4,1.33,0.4c0.8,0,1.52-0.26,2.16-0.78c0.64-0.52,1.14-1.24,1.49-2.17
			c0.36-0.93,0.54-1.93,0.54-3.03c0-0.9-0.21-1.61-0.62-2.13C517.05,48.35,516.48,48.1,515.74,48.1z M516.33,53.44
			c-0.27,0.78-0.63,1.38-1.08,1.8c-0.45,0.42-0.93,0.63-1.44,0.63c-0.55,0-0.97-0.15-1.26-0.46c-0.29-0.31-0.43-0.74-0.43-1.32
			c0-0.79,0.15-1.56,0.46-2.31c0.31-0.75,0.72-1.37,1.24-1.87c0.52-0.5,1.03-0.74,1.53-0.74c0.93,0,1.39,0.59,1.39,1.78
			C516.73,51.84,516.6,52.66,516.33,53.44z M526.12,49.58h-0.09c-0.21-0.49-0.5-0.86-0.88-1.12s-0.8-0.39-1.28-0.39
			c-0.78,0-1.49,0.26-2.14,0.79c-0.65,0.53-1.16,1.25-1.53,2.18c-0.37,0.93-0.56,1.94-0.56,3.02c0,0.9,0.21,1.6,0.62,2.12
			c0.41,0.52,0.98,0.77,1.71,0.77c1.03,0,2.02-0.6,2.95-1.79h0.06l-0.2,1.64h1.04l1.82-8.58h-0.99L526.12,49.58z M525.12,53.27
			c-0.31,0.77-0.72,1.4-1.22,1.89c-0.5,0.48-1,0.72-1.51,0.72c-0.44,0-0.79-0.15-1.03-0.44c-0.25-0.29-0.37-0.74-0.37-1.33
			c0-0.85,0.13-1.66,0.4-2.43c0.27-0.77,0.63-1.37,1.1-1.82c0.47-0.45,0.97-0.67,1.51-0.67c0.47,0,0.86,0.16,1.15,0.48
			c0.29,0.32,0.44,0.75,0.44,1.28C525.59,51.72,525.43,52.5,525.12,53.27z M528.37,56.81h1.31l2.6-12.18h-1.31L528.37,56.81z
			 M532.44,56.81h1.31l2.6-12.18h-1.31L532.44,56.81z M540.55,49.5h0.84l1.21-4.13h-1.48L540.55,49.5z M537.83,49.5h0.84l1.2-4.13
			h-1.47L537.83,49.5z M558.98,60.7h1.09V44.64h-1.09V60.7z M572.45,48c-0.5,0-1.02,0.06-1.58,0.19c-0.56,0.13-1.07,0.31-1.54,0.56
			l0.59,1.31c0.38-0.18,0.77-0.33,1.17-0.46c0.41-0.13,0.83-0.2,1.28-0.2c0.54,0,0.94,0.14,1.2,0.41c0.26,0.27,0.39,0.69,0.39,1.24
			v0.46l-1.49,0.05c-1.36,0.04-2.37,0.29-3.03,0.74c-0.66,0.45-0.99,1.13-0.99,2.02c0,0.84,0.24,1.49,0.72,1.95
			c0.48,0.46,1.14,0.69,1.99,0.69c0.66,0,1.21-0.1,1.63-0.29c0.42-0.19,0.84-0.55,1.26-1.08h0.06l0.37,1.21h1.31v-5.83
			c0-1.03-0.28-1.78-0.84-2.26C574.38,48.24,573.55,48,572.45,48z M573.95,53.43c0,0.67-0.2,1.2-0.61,1.57
			c-0.4,0.37-0.94,0.56-1.61,0.56c-0.46,0-0.8-0.11-1.03-0.32c-0.23-0.21-0.34-0.51-0.34-0.9c0-0.53,0.2-0.93,0.59-1.19
			c0.39-0.26,1.02-0.4,1.89-0.43l1.11-0.05V53.43z M582.52,56.81h1.84V44.64h-1.84V56.81z M590.38,48c-0.5,0-1.02,0.06-1.58,0.19
			c-0.56,0.13-1.07,0.31-1.54,0.56l0.59,1.31c0.38-0.18,0.77-0.33,1.17-0.46c0.41-0.13,0.83-0.2,1.28-0.2c0.54,0,0.94,0.14,1.2,0.41
			c0.26,0.27,0.39,0.69,0.39,1.24v0.46l-1.49,0.05c-1.36,0.04-2.37,0.29-3.03,0.74c-0.66,0.45-0.99,1.13-0.99,2.02
			c0,0.84,0.24,1.49,0.72,1.95c0.48,0.46,1.14,0.69,1.99,0.69c0.66,0,1.21-0.1,1.63-0.29c0.42-0.19,0.84-0.55,1.26-1.08h0.06
			l0.37,1.21h1.31v-5.83c0-1.03-0.28-1.78-0.84-2.26C592.31,48.24,591.48,48,590.38,48z M591.88,53.43c0,0.67-0.2,1.2-0.61,1.57
			c-0.4,0.37-0.94,0.56-1.61,0.56c-0.46,0-0.8-0.11-1.03-0.32c-0.23-0.21-0.34-0.51-0.34-0.9c0-0.53,0.2-0.93,0.59-1.19
			c0.39-0.26,1.02-0.4,1.89-0.43l1.11-0.05V53.43z M599.18,48.46c-0.46,0.3-0.84,0.71-1.12,1.23h-0.09l-0.24-1.53h-1.44v8.66h1.84
			v-4.52c0-0.77,0.23-1.39,0.68-1.87c0.46-0.48,1.05-0.72,1.79-0.72c0.28,0,0.55,0.03,0.81,0.09l0.18-1.71
			c-0.24-0.05-0.55-0.08-0.92-0.08C600.14,48,599.64,48.15,599.18,48.46z M606.9,48.05c-0.27-0.03-0.53-0.05-0.77-0.05
			c-1.1,0-1.94,0.26-2.53,0.77c-0.59,0.52-0.89,1.24-0.89,2.18c0,0.58,0.14,1.09,0.42,1.53c0.28,0.44,0.64,0.75,1.09,0.94
			c-0.36,0.22-0.63,0.44-0.81,0.67c-0.18,0.22-0.27,0.5-0.27,0.82c0,0.26,0.08,0.5,0.24,0.73c0.16,0.23,0.36,0.4,0.61,0.5
			c-0.61,0.14-1.08,0.39-1.41,0.76c-0.34,0.36-0.5,0.81-0.5,1.34c0,0.77,0.31,1.37,0.93,1.78c0.62,0.42,1.52,0.63,2.7,0.63
			c1.53,0,2.7-0.27,3.51-0.8c0.81-0.53,1.21-1.29,1.21-2.27c0-0.77-0.25-1.35-0.74-1.76c-0.5-0.41-1.22-0.61-2.18-0.61h-1.51
			c-0.5,0-0.84-0.05-1.02-0.15c-0.19-0.1-0.28-0.25-0.28-0.45c0-0.33,0.2-0.62,0.59-0.86c0.22,0.04,0.47,0.06,0.75,0.06
			c1.08,0,1.93-0.26,2.54-0.77c0.62-0.51,0.92-1.21,0.92-2.11c0-0.3-0.04-0.58-0.13-0.85c-0.09-0.27-0.2-0.49-0.34-0.67l1.48-0.27
			v-1.01h-3C607.37,48.12,607.17,48.09,606.9,48.05z M605.42,56.78h1.39c0.73,0,1.23,0.08,1.5,0.24c0.27,0.16,0.4,0.43,0.4,0.8
			c0,0.47-0.25,0.86-0.74,1.14c-0.49,0.29-1.24,0.43-2.24,0.43c-0.65,0-1.15-0.11-1.51-0.32c-0.36-0.21-0.54-0.52-0.54-0.92
			c0-0.42,0.16-0.76,0.47-1.01C604.48,56.91,604.9,56.78,605.42,56.78z M606.11,52.65c-0.52,0-0.92-0.15-1.2-0.44
			c-0.28-0.29-0.42-0.71-0.42-1.25c0-0.58,0.14-1.02,0.41-1.32c0.27-0.3,0.68-0.45,1.21-0.45c0.54,0,0.94,0.15,1.2,0.46
			c0.26,0.31,0.4,0.74,0.4,1.3C607.71,52.08,607.18,52.65,606.11,52.65z M615.55,48c-1.23,0-2.2,0.4-2.9,1.21
			c-0.7,0.81-1.06,1.92-1.06,3.33c0,1.38,0.38,2.46,1.14,3.24c0.76,0.79,1.81,1.18,3.16,1.18c0.59,0,1.11-0.04,1.57-0.13
			c0.46-0.09,0.91-0.24,1.36-0.45v-1.49c-0.51,0.22-0.98,0.38-1.42,0.48c-0.44,0.1-0.92,0.14-1.43,0.14c-0.78,0-1.38-0.23-1.81-0.68
			c-0.43-0.45-0.65-1.1-0.68-1.94h5.77v-0.99c0-1.22-0.33-2.17-0.99-2.86C617.6,48.35,616.69,48,615.55,48z M613.52,51.57
			c0.07-0.71,0.28-1.25,0.63-1.62c0.35-0.37,0.82-0.56,1.4-0.56c0.58,0,1.04,0.18,1.38,0.55c0.33,0.37,0.51,0.91,0.52,1.62H613.52z
			 M629.93,48c-1.14,0-2,0.43-2.58,1.29h-0.08c0.01-0.11,0.03-0.38,0.05-0.81c0.02-0.42,0.03-0.74,0.03-0.95v-2.9h-1.84v12.18h1.38
			l0.34-1.03h0.13c0.61,0.79,1.46,1.18,2.55,1.18c1.09,0,1.93-0.4,2.54-1.19c0.61-0.79,0.92-1.9,0.92-3.31c0-1.41-0.3-2.51-0.9-3.3
			C631.85,48.39,631.01,48,629.93,48z M630.97,54.69c-0.34,0.52-0.83,0.77-1.48,0.77c-0.76,0-1.3-0.24-1.64-0.71
			c-0.33-0.47-0.5-1.24-0.5-2.29v-0.13c0.01-1.02,0.18-1.75,0.5-2.19c0.33-0.44,0.86-0.65,1.6-0.65c1.35,0,2.02,0.98,2.02,2.95
			C631.47,53.43,631.3,54.18,630.97,54.69z M638.39,48.46c-0.46,0.3-0.84,0.71-1.12,1.23h-0.09l-0.24-1.53h-1.44v8.66h1.84v-4.52
			c0-0.77,0.23-1.39,0.68-1.87c0.46-0.48,1.05-0.72,1.79-0.72c0.28,0,0.55,0.03,0.81,0.09l0.18-1.71c-0.24-0.05-0.55-0.08-0.92-0.08
			C639.35,48,638.86,48.15,638.39,48.46z M643.34,44.84c-0.33,0-0.59,0.09-0.77,0.27c-0.18,0.18-0.27,0.43-0.27,0.76
			c0,0.31,0.09,0.56,0.27,0.74c0.18,0.18,0.44,0.27,0.77,0.27c0.32,0,0.58-0.09,0.76-0.27s0.27-0.43,0.27-0.74
			c0-0.33-0.09-0.58-0.27-0.76C643.91,44.93,643.66,44.84,643.34,44.84z M642.4,56.81h1.84v-8.66h-1.84V56.81z M650.58,48.05
			c-0.27-0.03-0.53-0.05-0.77-0.05c-1.1,0-1.94,0.26-2.53,0.77c-0.59,0.52-0.89,1.24-0.89,2.18c0,0.58,0.14,1.09,0.42,1.53
			c0.28,0.44,0.64,0.75,1.09,0.94c-0.36,0.22-0.63,0.44-0.81,0.67c-0.18,0.22-0.27,0.5-0.27,0.82c0,0.26,0.08,0.5,0.24,0.73
			c0.16,0.23,0.36,0.4,0.61,0.5c-0.61,0.14-1.08,0.39-1.41,0.76c-0.34,0.36-0.5,0.81-0.5,1.34c0,0.77,0.31,1.37,0.93,1.78
			c0.62,0.42,1.52,0.63,2.7,0.63c1.53,0,2.7-0.27,3.51-0.8c0.81-0.53,1.21-1.29,1.21-2.27c0-0.77-0.25-1.35-0.74-1.76
			c-0.5-0.41-1.22-0.61-2.18-0.61h-1.51c-0.5,0-0.84-0.05-1.02-0.15c-0.19-0.1-0.28-0.25-0.28-0.45c0-0.33,0.2-0.62,0.59-0.86
			c0.22,0.04,0.47,0.06,0.75,0.06c1.08,0,1.93-0.26,2.54-0.77c0.62-0.51,0.92-1.21,0.92-2.11c0-0.3-0.04-0.58-0.13-0.85
			c-0.09-0.27-0.2-0.49-0.34-0.67l1.48-0.27v-1.01h-3C651.05,48.12,650.85,48.09,650.58,48.05z M649.1,56.78h1.39
			c0.73,0,1.23,0.08,1.5,0.24c0.27,0.16,0.4,0.43,0.4,0.8c0,0.47-0.25,0.86-0.74,1.14c-0.49,0.29-1.24,0.43-2.24,0.43
			c-0.65,0-1.15-0.11-1.51-0.32c-0.36-0.21-0.54-0.52-0.54-0.92c0-0.42,0.16-0.76,0.47-1.01C648.16,56.91,648.58,56.78,649.1,56.78z
			 M649.79,52.65c-0.52,0-0.92-0.15-1.2-0.44c-0.28-0.29-0.42-0.71-0.42-1.25c0-0.58,0.14-1.02,0.41-1.32
			c0.27-0.3,0.68-0.45,1.21-0.45c0.54,0,0.94,0.15,1.2,0.46c0.26,0.31,0.4,0.74,0.4,1.3C651.39,52.08,650.86,52.65,649.79,52.65z
			 M660.26,48c-0.59,0-1.12,0.11-1.56,0.34c-0.45,0.23-0.79,0.55-1.04,0.97h-0.12c0.06-0.56,0.09-1.09,0.09-1.59v-3.09h-1.84v12.18
			h1.84v-4.3c0-1.09,0.18-1.86,0.54-2.32c0.36-0.46,0.93-0.69,1.7-0.69c0.58,0,1.01,0.16,1.28,0.49c0.27,0.33,0.4,0.83,0.4,1.49
			v5.32h1.85v-5.64C663.4,49.06,662.35,48,660.26,48z M668.31,55.17c-0.22-0.21-0.33-0.54-0.33-0.98v-4.63h2.47v-1.39h-2.47v-1.93
			h-1.13l-0.63,1.83l-1.27,0.67v0.81h1.18v4.66c0,1.84,0.87,2.75,2.61,2.75c0.34,0,0.68-0.03,1-0.09c0.32-0.06,0.58-0.13,0.79-0.22
			v-1.39c-0.45,0.14-0.9,0.21-1.35,0.21C668.83,55.48,668.54,55.38,668.31,55.17z M686.22,48c-0.6,0-1.13,0.12-1.6,0.36
			c-0.46,0.24-0.82,0.57-1.08,1h-0.13c-0.43-0.91-1.31-1.36-2.65-1.36c-0.55,0-1.05,0.11-1.51,0.34c-0.46,0.22-0.8,0.54-1.04,0.95
			h-0.09l-0.26-1.13h-1.44v8.66h1.84V52.5c0-1.07,0.17-1.84,0.5-2.3c0.33-0.46,0.85-0.69,1.56-0.69c0.53,0,0.92,0.16,1.17,0.49
			c0.25,0.33,0.38,0.82,0.38,1.48v5.34h1.85v-4.59c0-0.92,0.17-1.61,0.5-2.05c0.33-0.45,0.85-0.67,1.57-0.67
			c0.53,0,0.92,0.16,1.18,0.49c0.25,0.33,0.38,0.82,0.38,1.48v5.34h1.84v-5.64c0-1.07-0.24-1.87-0.71-2.39
			C688,48.26,687.25,48,686.22,48z M695.19,48c-1.23,0-2.2,0.4-2.9,1.21c-0.7,0.81-1.06,1.92-1.06,3.33c0,1.38,0.38,2.46,1.14,3.24
			c0.76,0.79,1.81,1.18,3.16,1.18c0.59,0,1.11-0.04,1.57-0.13c0.46-0.09,0.91-0.24,1.36-0.45v-1.49c-0.51,0.22-0.98,0.38-1.42,0.48
			c-0.44,0.1-0.92,0.14-1.43,0.14c-0.78,0-1.38-0.23-1.81-0.68c-0.43-0.45-0.65-1.1-0.68-1.94h5.77v-0.99
			c0-1.22-0.33-2.17-0.99-2.86C697.24,48.35,696.34,48,695.19,48z M693.16,51.57c0.07-0.71,0.28-1.25,0.63-1.62
			c0.35-0.37,0.82-0.56,1.4-0.56s1.04,0.18,1.38,0.55c0.33,0.37,0.51,0.91,0.52,1.62H693.16z M703.34,55.17
			c-0.22-0.21-0.33-0.54-0.33-0.98v-4.63h2.47v-1.39h-2.47v-1.93h-1.13l-0.63,1.83l-1.27,0.67v0.81h1.18v4.66
			c0,1.84,0.87,2.75,2.61,2.75c0.34,0,0.68-0.03,1-0.09c0.32-0.06,0.58-0.13,0.79-0.22v-1.39c-0.45,0.14-0.9,0.21-1.35,0.21
			C703.85,55.48,703.56,55.38,703.34,55.17z M710.73,48c-1.23,0-2.2,0.4-2.9,1.21c-0.7,0.81-1.06,1.92-1.06,3.33
			c0,1.38,0.38,2.46,1.14,3.24c0.76,0.79,1.81,1.18,3.16,1.18c0.59,0,1.11-0.04,1.57-0.13c0.46-0.09,0.91-0.24,1.36-0.45v-1.49
			c-0.51,0.22-0.98,0.38-1.42,0.48c-0.44,0.1-0.92,0.14-1.43,0.14c-0.78,0-1.38-0.23-1.81-0.68c-0.43-0.45-0.65-1.1-0.68-1.94h5.77
			v-0.99c0-1.22-0.33-2.17-0.99-2.86C712.78,48.35,711.87,48,710.73,48z M708.7,51.57c0.07-0.71,0.28-1.25,0.63-1.62
			c0.35-0.37,0.82-0.56,1.4-0.56c0.58,0,1.04,0.18,1.38,0.55c0.33,0.37,0.51,0.91,0.52,1.62H708.7z M720.13,48
			c-1.31,0-2.32,0.39-3.04,1.18c-0.72,0.79-1.08,1.88-1.08,3.29c0,0.9,0.17,1.7,0.5,2.38c0.33,0.68,0.81,1.21,1.43,1.57
			c0.62,0.37,1.34,0.55,2.14,0.55c1.29,0,2.3-0.4,3.03-1.19c0.73-0.79,1.09-1.9,1.09-3.31c0-1.37-0.37-2.45-1.1-3.26
			C722.37,48.4,721.38,48,720.13,48z M720.11,55.47c-1.48,0-2.21-1-2.21-3c0-0.95,0.17-1.69,0.52-2.2c0.35-0.51,0.91-0.77,1.68-0.77
			c1.47,0,2.21,0.99,2.21,2.97C722.31,54.47,721.58,55.47,720.11,55.47z M729.21,48.46c-0.46,0.3-0.84,0.71-1.12,1.23H728
			l-0.24-1.53h-1.44v8.66h1.84v-4.52c0-0.77,0.23-1.39,0.68-1.87c0.46-0.48,1.05-0.72,1.79-0.72c0.28,0,0.55,0.03,0.81,0.09
			l0.18-1.71c-0.24-0.05-0.55-0.08-0.92-0.08C730.17,48,729.68,48.15,729.21,48.46z M734.98,54.97c-0.2-0.21-0.49-0.32-0.87-0.32
			c-0.38,0-0.66,0.1-0.86,0.31s-0.3,0.5-0.3,0.88c0,0.38,0.1,0.67,0.3,0.88c0.2,0.21,0.49,0.32,0.86,0.32s0.66-0.11,0.86-0.32
			c0.2-0.22,0.3-0.51,0.3-0.88C735.27,55.47,735.18,55.18,734.98,54.97z"/>
	</g>
</g>
</svg>
