<?xml version="1.0" encoding="utf-8"?>
<!-- Generator: Adobe Illustrator 24.2.3, SVG Export Plug-In . SVG Version: 6.00 Build 0)  -->
<svg version="1.1" id="Layer_1" xmlns="http://www.w3.org/2000/svg" xmlns:xlink="http://www.w3.org/1999/xlink" x="0px" y="0px"
	 viewBox="0 0 416 69" style="enable-background:new 0 0 416 69;" xml:space="preserve">
<style type="text/css">
	.st0{fill:#FFFFFF;}
</style>
<g>
	<g>
		<path class="st0" d="M253,24.8c0-3.7-2.3-6.2-6-6.2c-1.9,0-3.3,0.4-4.1,0.8l0.4,1.6c0.8-0.4,1.8-0.6,3.4-0.6
			c2.2,0,4.2,1.2,4.2,4.3h-8.6c0,0.2-0.1,0.6-0.1,1c0,2.3,1.1,5.8,5.1,5.8C250.8,31.4,253,28.5,253,24.8z M244.3,26.2h6.5
			c-0.2,1.5-1.2,3.6-3.4,3.6C244.9,29.8,244.3,27.6,244.3,26.2z M92.9,14.4c-0.7,0.7-1.1,1.9-1.1,3.4v0.9l-2.1,0.9v1.3h2.1v10.9h2.8
			V20.8h3.2v-2.1h-3.2v-0.9c0-0.8,0.1-1.4,0.4-1.7c0.3-0.4,0.7-0.6,1.4-0.6c0.6,0,1.3,0.1,2,0.3l0.7-2.1c-0.9-0.3-1.9-0.5-2.9-0.5
			C94.7,13.3,93.6,13.7,92.9,14.4z M101.3,16.8c0.5,0,0.9-0.1,1.1-0.4s0.4-0.6,0.4-1.1c0-0.5-0.1-0.9-0.4-1.1
			c-0.3-0.3-0.7-0.4-1.1-0.4c-0.5,0-0.9,0.1-1.2,0.4c-0.3,0.3-0.4,0.6-0.4,1.1c0,0.5,0.1,0.8,0.4,1.1
			C100.4,16.6,100.8,16.8,101.3,16.8z M99.9,31.7h2.8v-13h-2.8V31.7z M109.4,24.9c0-1.1,0.3-2.1,1-2.8c0.7-0.7,1.6-1.1,2.7-1.1
			c0.4,0,0.8,0,1.2,0.1l0.3-2.6c-0.4-0.1-0.8-0.1-1.4-0.1c-0.8,0-1.5,0.2-2.2,0.7c-0.7,0.5-1.2,1.1-1.7,1.8h-0.2l-0.4-2.3h-2.2v13
			h2.8C109.4,31.7,109.4,24.9,109.4,24.9z M122.2,18.5c-1.8,0-3.3,0.6-4.4,1.8c-1.1,1.2-1.6,2.9-1.6,5c0,2.1,0.6,3.7,1.7,4.9
			c1.1,1.2,2.7,1.8,4.7,1.8c0.9,0,1.7-0.1,2.4-0.2c0.7-0.1,1.4-0.4,2-0.7v-2.2c-0.8,0.3-1.5,0.6-2.1,0.7c-0.7,0.1-1.4,0.2-2.1,0.2
			c-1.2,0-2.1-0.3-2.7-1s-1-1.6-1-2.9h8.7v-1.5c0-1.8-0.5-3.3-1.5-4.3C125.2,19,123.9,18.5,122.2,18.5z M119.1,23.8
			c0.1-1.1,0.4-1.9,1-2.4c0.5-0.6,1.2-0.8,2.1-0.8c0.9,0,1.6,0.3,2.1,0.8s0.8,1.4,0.8,2.4L119.1,23.8L119.1,23.8z M132.2,21.4
			c-0.6,0-1,0.1-1.3,0.5s-0.4,0.7-0.4,1.3c0,0.6,0.1,1,0.4,1.3s0.7,0.5,1.3,0.5c0.6,0,1-0.2,1.3-0.5c0.3-0.3,0.4-0.8,0.4-1.3
			c0-0.5-0.1-1-0.4-1.3C133.2,21.6,132.8,21.4,132.2,21.4z M147.9,30.1c0.9-1.2,1.4-2.8,1.4-5c0-2.1-0.4-3.8-1.4-4.9
			c-0.9-1.2-2.2-1.8-3.8-1.8c-1.7,0-3,0.6-3.9,1.9h-0.1c0-0.2,0-0.6,0.1-1.2s0.1-1.1,0.1-1.4v-4.4h-2.8v18.3h2.1l0.5-1.5h0.2
			c0.9,1.2,2.2,1.8,3.8,1.8C145.7,31.9,147,31.3,147.9,30.1z M141,28.6c-0.5-0.7-0.8-1.9-0.8-3.4V25c0-1.5,0.3-2.6,0.8-3.3
			c0.5-0.6,1.3-1,2.4-1c2,0,3,1.5,3,4.4c0,1.5-0.2,2.6-0.8,3.4c-0.5,0.8-1.2,1.2-2.2,1.2C142.3,29.7,141.5,29.3,141,28.6z
			 M159.9,29.9L159.9,29.9l0.6,1.8h2v-8.8c0-1.5-0.4-2.7-1.3-3.4c-0.8-0.7-2.1-1.1-3.7-1.1c-0.7,0-1.5,0.1-2.4,0.3
			c-0.8,0.2-1.6,0.5-2.3,0.8l0.9,2c0.6-0.3,1.2-0.5,1.8-0.7c0.6-0.2,1.2-0.3,1.9-0.3c0.8,0,1.4,0.2,1.8,0.6s0.6,1,0.6,1.9v0.7
			l-2.2,0.1c-2,0.1-3.6,0.4-4.5,1.1c-1,0.7-1.5,1.7-1.5,3c0,1.3,0.4,2.2,1.1,2.9c0.7,0.7,1.7,1,3,1c1,0,1.8-0.1,2.4-0.4
			C158.7,31.2,159.3,30.7,159.9,29.9z M154.9,29.3c-0.3-0.3-0.5-0.8-0.5-1.3c0-0.8,0.3-1.4,0.9-1.8c0.6-0.4,1.5-0.6,2.8-0.6l1.7-0.1
			v1.1c0,1-0.3,1.8-0.9,2.4s-1.4,0.8-2.4,0.8C155.8,29.8,155.3,29.6,154.9,29.3z M169.2,13.4h-2.8v18.3h2.8V13.4z M173.1,31.7h2.8
			V13.4h-2.8V31.7z M197.2,24.1h-6v2.4h6V24.1z M210.9,14.5l-6.4,17.2h2.6l6.4-17.2C213.5,14.5,210.9,14.5,210.9,14.5z M214.5,21.1
			l1.4-0.2c0.7-1.1,1.7-3.7,2.3-5.7l-2.2,0.2C215.7,17.2,215,19.7,214.5,21.1z M224,17.9c0-0.8,0.1-1.4,0.4-1.7
			c0.3-0.4,0.7-0.6,1.4-0.6c0.4,0,0.8,0.1,1.2,0.1v1.4h7.5v-2H228l0.4-1.3c-0.9-0.3-1.9-0.5-2.9-0.5c-1.5,0-2.6,0.4-3.3,1.1
			s-1.1,1.9-1.1,3.4v0.9l-2.1,0.9v1.3h2.1v10.9h2.8V20.8h3.2v-2.1H224L224,17.9L224,17.9z M232.1,18.7h-2.8v13h2.8V18.7z
			 M238.6,35.5h2.4c-1.1-1.4-1.9-3.1-2.5-4.9c-0.6-1.8-0.9-3.6-0.9-5.5s0.3-3.8,0.9-5.6s1.4-3.5,2.5-4.9h-2.4
			c-1.1,1.4-2,2.9-2.6,4.7c-0.6,1.8-0.9,3.8-0.9,5.8c0,2,0.3,4,0.9,5.7C236.6,32.6,237.4,34.2,238.6,35.5z M257.7,19.3
			c-0.6-1.8-1.5-3.4-2.6-4.8h-2.4c1.1,1.5,1.9,3.1,2.5,4.9s0.9,3.7,0.9,5.6c0,1.9-0.3,3.8-0.9,5.5c-0.6,1.8-1.4,3.4-2.5,4.9h2.4
			c1.1-1.3,2-2.9,2.6-4.6c0.6-1.8,0.9-3.7,0.9-5.8S258.3,21.1,257.7,19.3z M269.5,18.6c-0.4-0.1-0.8-0.1-1.4-0.1
			c-0.8,0-1.5,0.2-2.2,0.7c-0.7,0.5-1.2,1.1-1.7,1.8H264l-0.4-2.3h-2.2v13h2.8v-6.8c0-1.1,0.3-2.1,1-2.8c0.7-0.7,1.6-1.1,2.7-1.1
			c0.4,0,0.8,0,1.2,0.1L269.5,18.6z M270.3,34.7l1.5-0.1c0.7-1.1,1.7-3.8,2.3-5.8l-2.4,0.2C271.4,30.7,270.8,33.2,270.3,34.7z
			 M283.5,18.5c-1.7,0-3,0.6-3.9,1.9h-0.1c0-0.2,0-0.6,0.1-1.2c0-0.6,0.1-1.1,0.1-1.4v-4.3h-2.8v18.3h2.1l0.5-1.5h0.2
			c0.9,1.2,2.2,1.8,3.8,1.8c1.6,0,2.9-0.6,3.8-1.8s1.4-2.8,1.4-5c0-2.1-0.5-3.8-1.4-4.9C286.4,19.1,285.1,18.5,283.5,18.5z
			 M285,28.5c-0.5,0.8-1.2,1.2-2.2,1.2c-1.1,0-1.9-0.4-2.4-1.1s-0.8-1.9-0.8-3.4V25c0-1.5,0.3-2.6,0.8-3.3c0.5-0.6,1.3-1,2.4-1
			c2,0,3,1.5,3,4.4C285.8,26.6,285.5,27.7,285,28.5z M293.9,31.1c0.9,0.5,2,0.8,3.2,0.8c1.9,0,3.5-0.6,4.5-1.8
			c1.1-1.2,1.6-2.8,1.6-5c0-2-0.5-3.7-1.6-4.9c-1.1-1.2-2.6-1.8-4.5-1.8c-2,0-3.5,0.6-4.6,1.8c-1.1,1.2-1.6,2.8-1.6,4.9
			c0,1.4,0.2,2.5,0.8,3.6C292.3,29.8,293,30.6,293.9,31.1z M294.7,21.9c0.5-0.8,1.4-1.1,2.5-1.1c2.2,0,3.3,1.5,3.3,4.4
			c0,3-1.1,4.5-3.3,4.5c-2.2,0-3.3-1.5-3.3-4.5C293.9,23.7,294.1,22.6,294.7,21.9z M297.1,15c0.8,0.8,1.7,1.5,2.7,2.1h1.9v-0.3
			c-1.5-1.5-2.5-2.7-3-3.6h-3.1c-0.5,0.8-1.5,2-3,3.6v0.3h1.9C295.5,16.5,296.3,15.8,297.1,15z M306.5,31.7h2.8V13.4h-2.8V31.7z
			 M311.4,31.7h2.6l6.4-17.2h-2.6L311.4,31.7z M11.4,47c-0.5,0-1,0.1-1.5,0.4c-0.5,0.3-1,0.7-1.5,1.3H8.4l0.2-1.6H7.5l-1.8,8.6H7
			L7.8,52c0.2-0.8,0.4-1.5,0.8-2.1c0.3-0.6,0.7-1,1.2-1.3c0.4-0.3,0.9-0.5,1.4-0.5c0.4,0,0.7,0.1,0.9,0.3c0.2,0.2,0.3,0.5,0.3,0.8
			c0,0.2,0,0.6-0.2,1.1l-1.2,5.4h1.3l1.1-5.3c0.1-0.5,0.2-1,0.2-1.4c0-0.7-0.2-1.2-0.6-1.5C12.6,47.2,12.1,47,11.4,47z M19.5,47.1
			c-0.8,0-1.5,0.2-2.1,0.7c-0.6,0.5-1.2,1.1-1.5,2c-0.4,0.9-0.6,1.8-0.6,2.8c0,1,0.3,1.8,0.9,2.4c0.6,0.6,1.4,0.9,2.4,0.9
			c0.8,0,1.5-0.2,2.2-0.7c0.6-0.5,1.1-1.2,1.5-2c0.4-0.9,0.6-1.8,0.6-2.8c0-1-0.3-1.8-0.9-2.4C21.3,47.3,20.5,47.1,19.5,47.1z
			 M21,52.6c-0.2,0.7-0.6,1.2-1,1.6c-0.4,0.4-0.9,0.6-1.5,0.6c-0.6,0-1.1-0.2-1.4-0.6s-0.5-0.9-0.5-1.6c0-0.8,0.1-1.6,0.4-2.3
			s0.6-1.2,1-1.6c0.5-0.4,1-0.6,1.5-0.6c0.6,0,1,0.2,1.3,0.6s0.5,0.9,0.5,1.5C21.4,51.1,21.2,51.9,21,52.6z M30.1,50.9
			c-0.2,0.8-0.4,1.5-0.8,2.1c-0.3,0.6-0.7,1-1.2,1.3c-0.4,0.3-0.9,0.5-1.3,0.5c-0.8,0-1.2-0.4-1.2-1.1c0-0.3,0-0.6,0.1-1.1l1.2-5.4
			h-1.3l-1.1,5.3c-0.1,0.6-0.2,1-0.2,1.3c0,0.7,0.2,1.2,0.6,1.5s0.9,0.5,1.6,0.5c0.5,0,1-0.1,1.4-0.4c0.5-0.3,1-0.7,1.5-1.4h0.1
			l-0.2,1.6h1.1l1.8-8.6h-1.3L30.1,50.9z M38.9,47c-0.5,0-1,0.1-1.5,0.4c-0.5,0.3-1,0.7-1.5,1.3h-0.1l0.2-1.6H35l-1.8,8.6h1.3
			l0.8-3.7c0.2-0.8,0.4-1.5,0.8-2.1c0.3-0.6,0.7-1,1.2-1.3c0.4-0.3,0.9-0.5,1.4-0.5c0.4,0,0.7,0.1,0.9,0.3c0.2,0.2,0.3,0.5,0.3,0.8
			c0,0.2,0,0.6-0.2,1.1l-1.2,5.4h1.3l1.1-5.3c0.1-0.5,0.2-1,0.2-1.4c0-0.7-0.2-1.2-0.6-1.5C40.1,47.2,39.6,47,38.9,47z M50.4,59.6
			h1.1V43.6h-1.1V59.6z M63.8,46.9c-0.5,0-1,0.1-1.6,0.2c-0.6,0.1-1.1,0.3-1.5,0.6l0.6,1.3c0.4-0.2,0.8-0.3,1.2-0.5
			c0.4-0.1,0.8-0.2,1.3-0.2c0.5,0,0.9,0.1,1.2,0.4c0.3,0.3,0.4,0.7,0.4,1.2v0.5l-1.5,0.1c-1.4,0-2.4,0.3-3,0.7c-0.7,0.5-1,1.1-1,2
			c0,0.8,0.2,1.5,0.7,1.9s1.1,0.7,2,0.7c0.7,0,1.2-0.1,1.6-0.3s0.8-0.6,1.3-1.1h0.1l0.4,1.2h1.3v-5.8c0-1-0.3-1.8-0.8-2.3
			C65.8,47.2,64.9,46.9,63.8,46.9z M65.3,52.3c0,0.7-0.2,1.2-0.6,1.6c-0.4,0.4-0.9,0.6-1.6,0.6c-0.5,0-0.8-0.1-1-0.3
			c-0.2-0.2-0.3-0.5-0.3-0.9c0-0.5,0.2-0.9,0.6-1.2c0.4-0.3,1-0.4,1.9-0.4l1.1,0V52.3z M78.3,46.9c-1.1,0-2,0.4-2.6,1.3h-0.1
			c0-0.1,0-0.4,0.1-0.8c0-0.4,0-0.7,0-1v-2.9h-1.8v12.2h1.4l0.3-1h0.1c0.6,0.8,1.5,1.2,2.6,1.2c1.1,0,1.9-0.4,2.5-1.2
			c0.6-0.8,0.9-1.9,0.9-3.3c0-1.4-0.3-2.5-0.9-3.3C80.3,47.3,79.4,46.9,78.3,46.9z M79.4,53.6c-0.3,0.5-0.8,0.8-1.5,0.8
			c-0.8,0-1.3-0.2-1.6-0.7c-0.3-0.5-0.5-1.2-0.5-2.3v-0.1c0-1,0.2-1.8,0.5-2.2c0.3-0.4,0.9-0.7,1.6-0.7c1.3,0,2,1,2,3
			C79.9,52.3,79.7,53.1,79.4,53.6z M87.3,46.9c-0.5,0-1,0.1-1.6,0.2c-0.6,0.1-1.1,0.3-1.5,0.6l0.6,1.3c0.4-0.2,0.8-0.3,1.2-0.5
			c0.4-0.1,0.8-0.2,1.3-0.2c0.5,0,0.9,0.1,1.2,0.4c0.3,0.3,0.4,0.7,0.4,1.2v0.5l-1.5,0.1c-1.4,0-2.4,0.3-3,0.7c-0.7,0.5-1,1.1-1,2
			c0,0.8,0.2,1.5,0.7,1.9s1.1,0.7,2,0.7c0.7,0,1.2-0.1,1.6-0.3s0.8-0.6,1.3-1.1H89l0.4,1.2h1.3v-5.8c0-1-0.3-1.8-0.8-2.3
			C89.2,47.2,88.4,46.9,87.3,46.9z M88.8,52.3c0,0.7-0.2,1.2-0.6,1.6c-0.4,0.4-0.9,0.6-1.6,0.6c-0.5,0-0.8-0.1-1-0.3
			c-0.2-0.2-0.3-0.5-0.3-0.9c0-0.5,0.2-0.9,0.6-1.2c0.4-0.3,1-0.4,1.9-0.4l1.1,0V52.3z M93.2,55.7H95V43.6h-1.8V55.7z M97.7,55.7
			h1.8V43.6h-1.8V55.7z M109.9,46.9c-1.3,0-2.3,0.4-3,1.2s-1.1,1.9-1.1,3.3c0,0.9,0.2,1.7,0.5,2.4s0.8,1.2,1.4,1.6
			c0.6,0.4,1.3,0.5,2.1,0.5c1.3,0,2.3-0.4,3-1.2c0.7-0.8,1.1-1.9,1.1-3.3c0-1.4-0.4-2.4-1.1-3.3C112.1,47.3,111.2,46.9,109.9,46.9z
			 M109.9,54.4c-1.5,0-2.2-1-2.2-3c0-0.9,0.2-1.7,0.5-2.2s0.9-0.8,1.7-0.8c1.5,0,2.2,1,2.2,3C112.1,53.4,111.4,54.4,109.9,54.4z
			 M117.2,44.2c-0.5,0.5-0.7,1.2-0.7,2.3V47l-1.4,0.6v0.9h1.4v7.3h1.8v-7.3h2.1v-1.4h-2.1v-0.6c0-0.5,0.1-0.9,0.3-1.2
			c0.2-0.3,0.5-0.4,0.9-0.4c0.4,0,0.8,0.1,1.3,0.2l0.5-1.4c-0.6-0.2-1.3-0.3-1.9-0.3C118.4,43.5,117.7,43.7,117.2,44.2z M131.9,55.7
			h1.8V43.6h-1.8V55.7z M127.2,44.2c-0.5,0.5-0.7,1.2-0.7,2.3V47l-1.4,0.6v0.9h1.4v7.3h1.9v-7.3h2.1v-1.4h-2.1v-0.6
			c0-0.5,0.1-0.9,0.3-1.2c0.2-0.3,0.5-0.4,0.9-0.4c0.4,0,0.9,0.1,1.3,0.2l0.5-1.4c-0.6-0.2-1.3-0.3-1.9-0.3
			C128.4,43.5,127.7,43.7,127.2,44.2z M139.8,46.9c-0.5,0-1,0.1-1.6,0.2s-1.1,0.3-1.5,0.6l0.6,1.3c0.4-0.2,0.8-0.3,1.2-0.5
			c0.4-0.1,0.8-0.2,1.3-0.2c0.5,0,0.9,0.1,1.2,0.4c0.3,0.3,0.4,0.7,0.4,1.2v0.5l-1.5,0.1c-1.4,0-2.4,0.3-3,0.7c-0.7,0.5-1,1.1-1,2
			c0,0.8,0.2,1.5,0.7,1.9s1.1,0.7,2,0.7c0.7,0,1.2-0.1,1.6-0.3s0.8-0.6,1.3-1.1h0.1l0.4,1.2h1.3v-5.8c0-1-0.3-1.8-0.8-2.3
			C141.7,47.2,140.9,46.9,139.8,46.9z M141.3,52.3c0,0.7-0.2,1.2-0.6,1.6c-0.4,0.4-0.9,0.6-1.6,0.6c-0.5,0-0.8-0.1-1-0.3
			s-0.3-0.5-0.3-0.9c0-0.5,0.2-0.9,0.6-1.2c0.4-0.3,1-0.4,1.9-0.4l1.1,0V52.3z M155.4,46.9c-0.6,0-1.1,0.1-1.6,0.4
			c-0.5,0.2-0.8,0.6-1.1,1h-0.1c-0.4-0.9-1.3-1.4-2.6-1.4c-0.6,0-1.1,0.1-1.5,0.3c-0.5,0.2-0.8,0.5-1,0.9h-0.1l-0.3-1.1h-1.4v8.7
			h1.8v-4.3c0-1.1,0.2-1.8,0.5-2.3s0.9-0.7,1.6-0.7c0.5,0,0.9,0.2,1.2,0.5s0.4,0.8,0.4,1.5v5.3h1.9v-4.6c0-0.9,0.2-1.6,0.5-2
			c0.3-0.5,0.9-0.7,1.6-0.7c0.5,0,0.9,0.2,1.2,0.5c0.2,0.3,0.4,0.8,0.4,1.5v5.3h1.8v-5.6c0-1.1-0.2-1.9-0.7-2.4
			C157.2,47.2,156.5,46.9,155.4,46.9z M164.4,46.9c-1.2,0-2.2,0.4-2.9,1.2c-0.7,0.8-1.1,1.9-1.1,3.3c0,1.4,0.4,2.5,1.1,3.2
			c0.8,0.8,1.8,1.2,3.2,1.2c0.6,0,1.1,0,1.6-0.1c0.5-0.1,0.9-0.2,1.4-0.4v-1.5c-0.5,0.2-1,0.4-1.4,0.5s-0.9,0.1-1.4,0.1
			c-0.8,0-1.4-0.2-1.8-0.7c-0.4-0.5-0.6-1.1-0.7-1.9h5.8v-1c0-1.2-0.3-2.2-1-2.9C166.5,47.3,165.6,46.9,164.4,46.9z M162.4,50.5
			c0.1-0.7,0.3-1.2,0.6-1.6c0.4-0.4,0.8-0.6,1.4-0.6c0.6,0,1,0.2,1.4,0.6c0.3,0.4,0.5,0.9,0.5,1.6L162.4,50.5L162.4,50.5z M178,46.9
			c-1.3,0-2.3,0.4-3,1.2c-0.7,0.8-1.1,1.9-1.1,3.3c0,0.9,0.2,1.7,0.5,2.4s0.8,1.2,1.4,1.6c0.6,0.4,1.3,0.5,2.1,0.5
			c1.3,0,2.3-0.4,3-1.2c0.7-0.8,1.1-1.9,1.1-3.3c0-1.4-0.4-2.4-1.1-3.3C180.2,47.3,179.2,46.9,178,46.9z M178,54.4
			c-1.5,0-2.2-1-2.2-3c0-0.9,0.2-1.7,0.5-2.2s0.9-0.8,1.7-0.8c1.5,0,2.2,1,2.2,3C180.2,53.4,179.4,54.4,178,54.4z M187.1,47.4
			c-0.5,0.3-0.8,0.7-1.1,1.2h-0.1l-0.2-1.5h-1.4v8.7h1.8v-4.5c0-0.8,0.2-1.4,0.7-1.9c0.5-0.5,1.1-0.7,1.8-0.7c0.3,0,0.6,0,0.8,0.1
			l0.2-1.7c-0.2-0.1-0.6-0.1-0.9-0.1C188,46.9,187.5,47.1,187.1,47.4z M196.3,44.2c-0.5,0.5-0.7,1.2-0.7,2.3V47l-1.4,0.6v0.9h1.4
			v7.3h1.9v-7.3h2.1v-1.4h-2.1v-0.6c0-0.5,0.1-0.9,0.3-1.2c0.2-0.3,0.5-0.4,0.9-0.4c0.4,0,0.9,0.1,1.3,0.2l0.5-1.4
			c-0.6-0.2-1.3-0.3-1.9-0.3C197.6,43.5,196.8,43.7,196.3,44.2z M202,43.8c-0.3,0-0.6,0.1-0.8,0.3c-0.2,0.2-0.3,0.4-0.3,0.8
			c0,0.3,0.1,0.6,0.3,0.7c0.2,0.2,0.4,0.3,0.8,0.3c0.3,0,0.6-0.1,0.8-0.3s0.3-0.4,0.3-0.7c0-0.3-0.1-0.6-0.3-0.8
			C202.6,43.8,202.3,43.8,202,43.8z M201.1,55.7h1.8v-8.7h-1.8V55.7z M208.4,47.4c-0.5,0.3-0.8,0.7-1.1,1.2h-0.1l-0.2-1.5h-1.4v8.7
			h1.8v-4.5c0-0.8,0.2-1.4,0.7-1.9c0.5-0.5,1.1-0.7,1.8-0.7c0.3,0,0.6,0,0.8,0.1l0.2-1.7c-0.2-0.1-0.6-0.1-0.9-0.1
			C209.4,46.9,208.9,47.1,208.4,47.4z M215.9,46.9c-1.2,0-2.2,0.4-2.9,1.2c-0.7,0.8-1.1,1.9-1.1,3.3c0,1.4,0.4,2.5,1.1,3.2
			c0.8,0.8,1.8,1.2,3.2,1.2c0.6,0,1.1,0,1.6-0.1c0.5-0.1,0.9-0.2,1.4-0.4v-1.5c-0.5,0.2-1,0.4-1.4,0.5s-0.9,0.1-1.4,0.1
			c-0.8,0-1.4-0.2-1.8-0.7c-0.4-0.5-0.6-1.1-0.7-1.9h5.8v-1c0-1.2-0.3-2.2-1-2.9C217.9,47.3,217,46.9,215.9,46.9z M213.9,50.5
			c0.1-0.7,0.3-1.2,0.6-1.6c0.4-0.4,0.8-0.6,1.4-0.6c0.6,0,1,0.2,1.4,0.6c0.3,0.4,0.5,0.9,0.5,1.6L213.9,50.5L213.9,50.5z
			 M222.6,53.6c-0.4,0-0.7,0.1-0.9,0.3c-0.2,0.2-0.3,0.5-0.3,0.9c0,0.4,0.1,0.7,0.3,0.9c0.2,0.2,0.5,0.3,0.9,0.3
			c0.4,0,0.7-0.1,0.9-0.3c0.2-0.2,0.3-0.5,0.3-0.9c0-0.4-0.1-0.7-0.3-0.9C223.2,53.7,222.9,53.6,222.6,53.6z M231.3,59.6h1.1V43.6
			h-1.1V59.6z M244.8,46.9c-0.5,0-1,0.1-1.6,0.2s-1.1,0.3-1.5,0.6l0.6,1.3c0.4-0.2,0.8-0.3,1.2-0.5c0.4-0.1,0.8-0.2,1.3-0.2
			c0.5,0,0.9,0.1,1.2,0.4c0.3,0.3,0.4,0.7,0.4,1.2v0.5l-1.5,0.1c-1.4,0-2.4,0.3-3,0.7c-0.7,0.5-1,1.1-1,2c0,0.8,0.2,1.5,0.7,1.9
			s1.1,0.7,2,0.7c0.7,0,1.2-0.1,1.6-0.3s0.8-0.6,1.3-1.1h0.1l0.4,1.2h1.3v-5.8c0-1-0.3-1.8-0.8-2.3
			C246.7,47.2,245.9,46.9,244.8,46.9z M246.3,52.3c0,0.7-0.2,1.2-0.6,1.6c-0.4,0.4-0.9,0.6-1.6,0.6c-0.5,0-0.8-0.1-1-0.3
			c-0.2-0.2-0.3-0.5-0.3-0.9c0-0.5,0.2-0.9,0.6-1.2c0.4-0.3,1-0.4,1.9-0.4l1.1,0V52.3z M254.9,55.7h1.8V43.6h-1.8V55.7z M262.7,46.9
			c-0.5,0-1,0.1-1.6,0.2s-1.1,0.3-1.5,0.6l0.6,1.3c0.4-0.2,0.8-0.3,1.2-0.5c0.4-0.1,0.8-0.2,1.3-0.2c0.5,0,0.9,0.1,1.2,0.4
			c0.3,0.3,0.4,0.7,0.4,1.2v0.5l-1.5,0.1c-1.4,0-2.4,0.3-3,0.7c-0.7,0.5-1,1.1-1,2c0,0.8,0.2,1.5,0.7,1.9s1.1,0.7,2,0.7
			c0.7,0,1.2-0.1,1.6-0.3s0.8-0.6,1.3-1.1h0.1l0.4,1.2h1.3v-5.8c0-1-0.3-1.8-0.8-2.3C264.7,47.2,263.8,46.9,262.7,46.9z M264.2,52.3
			c0,0.7-0.2,1.2-0.6,1.6c-0.4,0.4-0.9,0.6-1.6,0.6c-0.5,0-0.8-0.1-1-0.3c-0.2-0.2-0.3-0.5-0.3-0.9c0-0.5,0.2-0.9,0.6-1.2
			c0.4-0.3,1-0.4,1.9-0.4l1.1,0V52.3z M271.5,47.4c-0.5,0.3-0.8,0.7-1.1,1.2h-0.1l-0.2-1.5h-1.4v8.7h1.8v-4.5c0-0.8,0.2-1.4,0.7-1.9
			c0.5-0.5,1-0.7,1.8-0.7c0.3,0,0.5,0,0.8,0.1L274,47c-0.2-0.1-0.5-0.1-0.9-0.1C272.5,46.9,272,47.1,271.5,47.4z M279.3,47
			c-0.3,0-0.5-0.1-0.8-0.1c-1.1,0-1.9,0.3-2.5,0.8c-0.6,0.5-0.9,1.2-0.9,2.2c0,0.6,0.1,1.1,0.4,1.5c0.3,0.4,0.6,0.8,1.1,0.9
			c-0.4,0.2-0.6,0.4-0.8,0.7c-0.2,0.2-0.3,0.5-0.3,0.8c0,0.3,0.1,0.5,0.2,0.7c0.2,0.2,0.4,0.4,0.6,0.5c-0.6,0.1-1.1,0.4-1.4,0.8
			c-0.3,0.4-0.5,0.8-0.5,1.3c0,0.8,0.3,1.4,0.9,1.8c0.6,0.4,1.5,0.6,2.7,0.6c1.5,0,2.7-0.3,3.5-0.8s1.2-1.3,1.2-2.3
			c0-0.8-0.2-1.3-0.7-1.8c-0.5-0.4-1.2-0.6-2.2-0.6h-1.5c-0.5,0-0.8-0.1-1-0.2c-0.2-0.1-0.3-0.2-0.3-0.5c0-0.3,0.2-0.6,0.6-0.9
			c0.2,0,0.5,0.1,0.8,0.1c1.1,0,1.9-0.3,2.5-0.8c0.6-0.5,0.9-1.2,0.9-2.1c0-0.3,0-0.6-0.1-0.8s-0.2-0.5-0.3-0.7l1.5-0.3v-1h-3
			C279.7,47,279.5,47,279.3,47z M277.8,55.7h1.4c0.7,0,1.2,0.1,1.5,0.2c0.3,0.2,0.4,0.4,0.4,0.8c0,0.5-0.2,0.9-0.7,1.1
			c-0.5,0.3-1.2,0.4-2.2,0.4c-0.7,0-1.2-0.1-1.5-0.3s-0.5-0.5-0.5-0.9c0-0.4,0.2-0.8,0.5-1C276.8,55.8,277.3,55.7,277.8,55.7z
			 M278.5,51.6c-0.5,0-0.9-0.2-1.2-0.4c-0.3-0.3-0.4-0.7-0.4-1.2c0-0.6,0.1-1,0.4-1.3c0.3-0.3,0.7-0.5,1.2-0.5
			c0.5,0,0.9,0.2,1.2,0.5c0.3,0.3,0.4,0.7,0.4,1.3C280.1,51,279.5,51.6,278.5,51.6z M287.9,46.9c-1.2,0-2.2,0.4-2.9,1.2
			c-0.7,0.8-1.1,1.9-1.1,3.3c0,1.4,0.4,2.5,1.1,3.2c0.8,0.8,1.8,1.2,3.2,1.2c0.6,0,1.1,0,1.6-0.1c0.5-0.1,0.9-0.2,1.4-0.4v-1.5
			c-0.5,0.2-1,0.4-1.4,0.5s-0.9,0.1-1.4,0.1c-0.8,0-1.4-0.2-1.8-0.7c-0.4-0.5-0.7-1.1-0.7-1.9h5.8v-1c0-1.2-0.3-2.2-1-2.9
			C290,47.3,289.1,46.9,287.9,46.9z M285.9,50.5c0.1-0.7,0.3-1.2,0.6-1.6c0.3-0.4,0.8-0.6,1.4-0.6s1,0.2,1.4,0.6
			c0.3,0.4,0.5,0.9,0.5,1.6L285.9,50.5L285.9,50.5z M302.3,46.9c-1.1,0-2,0.4-2.6,1.3h-0.1c0-0.1,0-0.4,0-0.8c0-0.4,0-0.7,0-1v-2.9
			h-1.8v12.2h1.4l0.3-1h0.1c0.6,0.8,1.5,1.2,2.5,1.2c1.1,0,1.9-0.4,2.5-1.2c0.6-0.8,0.9-1.9,0.9-3.3c0-1.4-0.3-2.5-0.9-3.3
			C304.2,47.3,303.4,46.9,302.3,46.9z M303.3,53.6c-0.3,0.5-0.8,0.8-1.5,0.8c-0.8,0-1.3-0.2-1.6-0.7c-0.3-0.5-0.5-1.2-0.5-2.3v-0.1
			c0-1,0.2-1.8,0.5-2.2c0.3-0.4,0.9-0.7,1.6-0.7c1.3,0,2,1,2,3C303.8,52.3,303.7,53.1,303.3,53.6z M310.8,47.4
			c-0.5,0.3-0.8,0.7-1.1,1.2h-0.1l-0.2-1.5h-1.4v8.7h1.8v-4.5c0-0.8,0.2-1.4,0.7-1.9c0.5-0.5,1-0.7,1.8-0.7c0.3,0,0.5,0,0.8,0.1
			l0.2-1.7c-0.2-0.1-0.5-0.1-0.9-0.1C311.7,46.9,311.2,47.1,310.8,47.4z M315.7,43.8c-0.3,0-0.6,0.1-0.8,0.3s-0.3,0.4-0.3,0.8
			c0,0.3,0.1,0.6,0.3,0.7s0.4,0.3,0.8,0.3c0.3,0,0.6-0.1,0.8-0.3s0.3-0.4,0.3-0.7c0-0.3-0.1-0.6-0.3-0.8
			C316.3,43.8,316,43.8,315.7,43.8z M314.8,55.7h1.8v-8.7h-1.8V55.7z M322.9,47c-0.3,0-0.5-0.1-0.8-0.1c-1.1,0-1.9,0.3-2.5,0.8
			c-0.6,0.5-0.9,1.2-0.9,2.2c0,0.6,0.1,1.1,0.4,1.5c0.3,0.4,0.6,0.8,1.1,0.9c-0.4,0.2-0.6,0.4-0.8,0.7c-0.2,0.2-0.3,0.5-0.3,0.8
			c0,0.3,0.1,0.5,0.2,0.7c0.2,0.2,0.4,0.4,0.6,0.5c-0.6,0.1-1.1,0.4-1.4,0.8c-0.3,0.4-0.5,0.8-0.5,1.3c0,0.8,0.3,1.4,0.9,1.8
			c0.6,0.4,1.5,0.6,2.7,0.6c1.5,0,2.7-0.3,3.5-0.8s1.2-1.3,1.2-2.3c0-0.8-0.2-1.3-0.7-1.8c-0.5-0.4-1.2-0.6-2.2-0.6H322
			c-0.5,0-0.8-0.1-1-0.2c-0.2-0.1-0.3-0.2-0.3-0.5c0-0.3,0.2-0.6,0.6-0.9c0.2,0,0.5,0.1,0.8,0.1c1.1,0,1.9-0.3,2.5-0.8
			c0.6-0.5,0.9-1.2,0.9-2.1c0-0.3,0-0.6-0.1-0.8s-0.2-0.5-0.3-0.7l1.5-0.3v-1h-3C323.4,47,323.2,47,322.9,47z M321.5,55.7h1.4
			c0.7,0,1.2,0.1,1.5,0.2c0.3,0.2,0.4,0.4,0.4,0.8c0,0.5-0.2,0.9-0.7,1.1c-0.5,0.3-1.2,0.4-2.2,0.4c-0.7,0-1.2-0.1-1.5-0.3
			s-0.5-0.5-0.5-0.9c0-0.4,0.2-0.8,0.5-1C320.5,55.8,320.9,55.7,321.5,55.7z M322.2,51.6c-0.5,0-0.9-0.2-1.2-0.4
			c-0.3-0.3-0.4-0.7-0.4-1.2c0-0.6,0.1-1,0.4-1.3c0.3-0.3,0.7-0.5,1.2-0.5c0.5,0,0.9,0.2,1.2,0.5c0.3,0.3,0.4,0.7,0.4,1.3
			C323.8,51,323.2,51.6,322.2,51.6z M332.6,46.9c-0.6,0-1.1,0.1-1.6,0.3c-0.5,0.2-0.8,0.5-1,1h-0.1c0.1-0.6,0.1-1.1,0.1-1.6v-3.1
			h-1.8v12.2h1.8v-4.3c0-1.1,0.2-1.9,0.5-2.3s0.9-0.7,1.7-0.7c0.6,0,1,0.2,1.3,0.5s0.4,0.8,0.4,1.5v5.3h1.8v-5.6
			C335.8,48,334.7,46.9,332.6,46.9z M340.7,54.1c-0.2-0.2-0.3-0.5-0.3-1v-4.6h2.5v-1.4h-2.5v-1.9h-1.1l-0.6,1.8l-1.3,0.7v0.8h1.2
			v4.7c0,1.8,0.9,2.8,2.6,2.8c0.3,0,0.7,0,1-0.1c0.3-0.1,0.6-0.1,0.8-0.2v-1.4c-0.5,0.1-0.9,0.2-1.3,0.2
			C341.2,54.4,340.9,54.3,340.7,54.1z M358.6,46.9c-0.6,0-1.1,0.1-1.6,0.4c-0.5,0.2-0.8,0.6-1.1,1h-0.1c-0.4-0.9-1.3-1.4-2.7-1.4
			c-0.5,0-1,0.1-1.5,0.3c-0.5,0.2-0.8,0.5-1,0.9h-0.1l-0.3-1.1h-1.4v8.7h1.8v-4.3c0-1.1,0.2-1.8,0.5-2.3s0.8-0.7,1.6-0.7
			c0.5,0,0.9,0.2,1.2,0.5s0.4,0.8,0.4,1.5v5.3h1.8v-4.6c0-0.9,0.2-1.6,0.5-2c0.3-0.5,0.8-0.7,1.6-0.7c0.5,0,0.9,0.2,1.2,0.5
			c0.2,0.3,0.4,0.8,0.4,1.5v5.3h1.8v-5.6c0-1.1-0.2-1.9-0.7-2.4C360.4,47.2,359.6,46.9,358.6,46.9z M367.6,46.9
			c-1.2,0-2.2,0.4-2.9,1.2c-0.7,0.8-1.1,1.9-1.1,3.3c0,1.4,0.4,2.5,1.1,3.2c0.8,0.8,1.8,1.2,3.2,1.2c0.6,0,1.1,0,1.6-0.1
			c0.5-0.1,0.9-0.2,1.4-0.4v-1.5c-0.5,0.2-1,0.4-1.4,0.5s-0.9,0.1-1.4,0.1c-0.8,0-1.4-0.2-1.8-0.7c-0.4-0.5-0.7-1.1-0.7-1.9h5.8v-1
			c0-1.2-0.3-2.2-1-2.9C369.6,47.3,368.7,46.9,367.6,46.9z M365.5,50.5c0.1-0.7,0.3-1.2,0.6-1.6c0.3-0.4,0.8-0.6,1.4-0.6
			s1,0.2,1.4,0.6c0.3,0.4,0.5,0.9,0.5,1.6L365.5,50.5L365.5,50.5z M375.7,54.1c-0.2-0.2-0.3-0.5-0.3-1v-4.6h2.5v-1.4h-2.5v-1.9h-1.1
			l-0.6,1.8l-1.3,0.7v0.8h1.2v4.7c0,1.8,0.9,2.8,2.6,2.8c0.3,0,0.7,0,1-0.1c0.3-0.1,0.6-0.1,0.8-0.2v-1.4c-0.5,0.1-0.9,0.2-1.3,0.2
			C376.2,54.4,375.9,54.3,375.7,54.1z M383.1,46.9c-1.2,0-2.2,0.4-2.9,1.2c-0.7,0.8-1.1,1.9-1.1,3.3c0,1.4,0.4,2.5,1.1,3.2
			c0.8,0.8,1.8,1.2,3.2,1.2c0.6,0,1.1,0,1.6-0.1c0.5-0.1,0.9-0.2,1.4-0.4v-1.5c-0.5,0.2-1,0.4-1.4,0.5s-0.9,0.1-1.4,0.1
			c-0.8,0-1.4-0.2-1.8-0.7c-0.4-0.5-0.7-1.1-0.7-1.9h5.8v-1c0-1.2-0.3-2.2-1-2.9C385.1,47.3,384.2,46.9,383.1,46.9z M381.1,50.5
			c0.1-0.7,0.3-1.2,0.6-1.6c0.3-0.4,0.8-0.6,1.4-0.6s1,0.2,1.4,0.6c0.3,0.4,0.5,0.9,0.5,1.6L381.1,50.5L381.1,50.5z M392.5,46.9
			c-1.3,0-2.3,0.4-3,1.2s-1.1,1.9-1.1,3.3c0,0.9,0.2,1.7,0.5,2.4s0.8,1.2,1.4,1.6c0.6,0.4,1.3,0.5,2.1,0.5c1.3,0,2.3-0.4,3-1.2
			c0.7-0.8,1.1-1.9,1.1-3.3c0-1.4-0.4-2.4-1.1-3.3C394.7,47.3,393.7,46.9,392.5,46.9z M392.5,54.4c-1.5,0-2.2-1-2.2-3
			c0-0.9,0.2-1.7,0.5-2.2c0.3-0.5,0.9-0.8,1.7-0.8c1.5,0,2.2,1,2.2,3C394.7,53.4,393.9,54.4,392.5,54.4z M401.6,47.4
			c-0.5,0.3-0.8,0.7-1.1,1.2h-0.1l-0.2-1.5h-1.4v8.7h1.8v-4.5c0-0.8,0.2-1.4,0.7-1.9c0.5-0.5,1-0.7,1.8-0.7c0.3,0,0.5,0,0.8,0.1
			L404,47c-0.2-0.1-0.5-0.1-0.9-0.1C402.5,46.9,402,47.1,401.6,47.4z M407.3,53.9c-0.2-0.2-0.5-0.3-0.9-0.3s-0.7,0.1-0.9,0.3
			c-0.2,0.2-0.3,0.5-0.3,0.9c0,0.4,0.1,0.7,0.3,0.9c0.2,0.2,0.5,0.3,0.9,0.3s0.7-0.1,0.9-0.3c0.2-0.2,0.3-0.5,0.3-0.9
			C407.6,54.4,407.5,54.1,407.3,53.9z"/>
	</g>
</g>
</svg>
