<?xml version="1.0" encoding="utf-8"?>
<!-- Generator: Adobe Illustrator 24.2.3, SVG Export Plug-In . SVG Version: 6.00 Build 0)  -->
<svg version="1.1" id="Layer_1" xmlns="http://www.w3.org/2000/svg" xmlns:xlink="http://www.w3.org/1999/xlink" x="0px" y="0px"
	 viewBox="0 0 416 49" style="enable-background:new 0 0 416 49;" xml:space="preserve">
<style type="text/css">
	.st0{fill:#FFFFFF;}
</style>
<path class="st0" d="M99.6,36.4c1.8,0,3.4-0.4,4.8-1.2c1.4-0.8,2.5-2,3.3-3.4c0.8-1.5,1.2-3.1,1.2-5c0-1.9-0.4-3.6-1.2-5
	c-0.8-1.5-1.9-2.6-3.3-3.4c-1.4-0.8-3-1.2-4.8-1.2c-1.8,0-3.4,0.4-4.8,1.2c-1.4,0.8-2.5,2-3.3,3.4c-0.8,1.5-1.2,3.2-1.2,5
	c0,1.9,0.4,3.6,1.2,5c0.8,1.5,1.9,2.6,3.3,3.4C96.2,36,97.8,36.4,99.6,36.4z M99.7,14.9c2.2,0,4.1,0.5,5.8,1.5
	c1.7,1,3.1,2.4,4.1,4.2c1,1.8,1.5,3.8,1.5,6.1c0,2.3-0.5,4.3-1.5,6.1c-1,1.8-2.3,3.2-4.1,4.2c-1.7,1-3.7,1.5-5.8,1.5
	c-2,0-3.9-0.5-5.5-1.4c-1.7-1-2.9-2.3-3.9-4v13.8h-2.2V15.1h2.1v5.4c0.9-1.8,2.2-3.1,3.9-4.1C95.8,15.4,97.6,14.9,99.7,14.9z
	 M68.9,36.5c1.9,0,3.5-0.4,4.9-1.3c1.3-0.9,2.4-2.2,3-3.8V27h-7.9c-2.3,0-3.9,0.4-4.9,1.2c-1,0.8-1.5,2-1.5,3.4
	c0,1.5,0.6,2.7,1.7,3.6C65.3,36.1,66.9,36.5,68.9,36.5z M70.1,14.9c2.9,0,5.1,0.7,6.6,2.2c1.5,1.5,2.3,3.6,2.3,6.4v14.6h-2.1v-4.1
	c-0.7,1.4-1.8,2.4-3.2,3.2c-1.4,0.8-3.1,1.1-5.1,1.1c-2.6,0-4.6-0.6-6.1-1.8c-1.5-1.2-2.2-2.8-2.2-4.8c0-1.9,0.7-3.5,2-4.7
	c1.4-1.2,3.6-1.8,6.6-1.8h7.9v-1.9c0-2.2-0.6-3.8-1.8-4.9c-1.2-1.1-2.9-1.7-5.1-1.7c-1.5,0-3,0.3-4.4,0.8c-1.4,0.5-2.6,1.2-3.5,2.1
	l-1.1-1.6c1.1-1,2.5-1.8,4.1-2.4C66.7,15.2,68.4,14.9,70.1,14.9z M43.9,14.9c2.9,0,5.2,0.8,6.8,2.5c1.7,1.7,2.5,4.1,2.5,7.2v13.5
	h-2.2V24.9c0-2.6-0.7-4.6-2-5.9c-1.3-1.4-3.1-2-5.5-2c-2.7,0-4.8,0.8-6.4,2.4c-1.6,1.6-2.3,3.8-2.3,6.5v12.3h-2.2V15.1h2.1v5
	c0.8-1.6,2-2.9,3.6-3.8C39.9,15.4,41.7,14.9,43.9,14.9z M14.6,38.4c-2.3,0-4.4-0.4-6.5-1.2c-2-0.8-3.6-1.8-4.8-3l1-1.7
	c1.1,1.1,2.6,2.1,4.4,2.8c1.8,0.7,3.8,1.1,5.8,1.1c2.9,0,5.2-0.6,6.7-1.7c1.5-1.1,2.3-2.6,2.3-4.4c0-1.4-0.4-2.5-1.2-3.3
	c-0.8-0.8-1.8-1.5-3-1.9c-1.2-0.4-2.8-0.9-4.8-1.4c-2.3-0.6-4.1-1.1-5.5-1.6c-1.4-0.5-2.5-1.4-3.5-2.5c-1-1.1-1.4-2.6-1.4-4.4
	c0-1.5,0.4-2.9,1.2-4.1c0.8-1.3,2-2.2,3.6-3C10.6,7.4,12.6,7,15.1,7c1.7,0,3.4,0.3,5,0.8c1.7,0.5,3.1,1.2,4.3,2l-0.8,1.8
	c-1.2-0.9-2.6-1.5-4.1-1.9C18,9.2,16.5,9,15.1,9c-2.9,0-5,0.6-6.5,1.7c-1.5,1.1-2.2,2.6-2.2,4.5c0,1.4,0.4,2.5,1.2,3.3
	c0.8,0.8,1.8,1.5,3,1.9c1.2,0.4,2.8,0.9,4.8,1.4c2.3,0.6,4.1,1.1,5.4,1.6c1.4,0.5,2.5,1.3,3.5,2.4c1,1.1,1.4,2.5,1.4,4.3
	c0,1.5-0.4,2.9-1.2,4.1c-0.8,1.2-2.1,2.2-3.7,3C19.1,38,17,38.4,14.6,38.4z"/>
<path class="st0" d="M115,22.7c0-9.2,7.2-16,16.9-16c9.7,0,16.9,6.8,16.9,16s-7.2,16-16.9,16C122.1,38.7,115,31.9,115,22.7z
	 M141.6,22.7c0-5.9-4.2-9.9-9.7-9.9c-5.5,0-9.7,4-9.7,9.9c0,5.9,4.2,9.9,9.7,9.9C137.4,32.6,141.6,28.6,141.6,22.7z"/>
<path class="st0" d="M178.7,26.3c0,7.5-5.2,12.2-11.8,12.2c-3.2,0-5.7-1-7.5-3.1v2.7h-6.6V5.4h6.9v11.5c1.8-1.9,4.2-2.9,7.2-2.9
	C173.5,14,178.7,18.8,178.7,26.3z M171.7,26.3c0-4.1-2.6-6.6-6.1-6.6c-3.4,0-6.1,2.5-6.1,6.6c0,4.1,2.6,6.6,6.1,6.6
	C169.1,32.9,171.7,30.4,171.7,26.3z"/>
<path class="st0" d="M181,36l2.3-5c2.1,1.4,5.3,2.3,8.3,2.3c3.2,0,4.4-0.8,4.4-2.2c0-3.9-14.4,0.1-14.4-9.4c0-4.5,4.1-7.7,11-7.7
	c3.3,0,6.9,0.8,9.1,2.1l-2.3,4.9c-2.3-1.3-4.7-1.8-6.9-1.8c-3.1,0-4.4,1-4.4,2.2c0,4.1,14.4,0.1,14.4,9.5c0,4.4-4.1,7.6-11.2,7.6
	C187.2,38.5,183.2,37.4,181,36z"/>
<path class="st0" d="M229.9,28.2h-18c0.7,3,3.2,4.8,6.8,4.8c2.5,0,4.3-0.8,6-2.3l3.7,4c-2.2,2.5-5.5,3.8-9.8,3.8
	c-8.2,0-13.6-5.2-13.6-12.2c0-7.1,5.4-12.2,12.7-12.2c7,0,12.4,4.7,12.4,12.3C230,26.9,229.9,27.7,229.9,28.2z M211.8,24.2h11.7
	c-0.5-3-2.7-4.9-5.8-4.9C214.6,19.3,212.3,21.2,211.8,24.2z"/>
<path class="st0" d="M248.4,14v6.4c-0.6,0-1-0.1-1.5-0.1c-3.8,0-6.3,2.1-6.3,6.6v11.2h-6.9V14.4h6.6v3.1
	C241.9,15.2,244.8,14,248.4,14z"/>
<path class="st0" d="M277.9,14.4l-10,23.8h-7.1l-10-23.8h7.1l6.6,16.2l6.8-16.2H277.9z"/>
<path class="st0" d="M301,24.6v13.6h-6.5v-3c-1.3,2.2-3.8,3.3-7.2,3.3c-5.6,0-8.9-3.1-8.9-7.2c0-4.2,3-7.1,10.2-7.1h5.5
	c0-3-1.8-4.7-5.5-4.7c-2.5,0-5.1,0.8-6.9,2.2l-2.5-4.8c2.6-1.9,6.5-2.9,10.3-2.9C296.8,14,301,17.4,301,24.6z M294.1,30.7v-2.4h-4.7
	c-3.2,0-4.2,1.2-4.2,2.8c0,1.7,1.5,2.9,3.9,2.9C291.3,33.9,293.3,32.8,294.1,30.7z"/>
<path class="st0" d="M322.6,37c-1.4,1-3.5,1.5-5.6,1.5c-5.6,0-8.9-2.9-8.9-8.5v-9.8h-3.7v-5.3h3.7V9.1h6.9v5.8h5.9v5.3H315v9.7
	c0,2,1.1,3.1,3,3.1c1,0,2-0.3,2.8-0.9L322.6,37z"/>
<path class="st0" d="M324,26.3c0-7.2,5.5-12.2,13.1-12.2s13,5.1,13,12.2c0,7.2-5.5,12.2-13,12.2S324,33.4,324,26.3z M343.1,26.3
	c0-4.1-2.6-6.6-6.1-6.6c-3.4,0-6.1,2.5-6.1,6.6c0,4.1,2.7,6.6,6.1,6.6C340.5,32.9,343.1,30.4,343.1,26.3z"/>
<path class="st0" d="M368.5,14v6.4c-0.6,0-1-0.1-1.5-0.1c-3.8,0-6.3,2.1-6.3,6.6v11.2h-6.9V14.4h6.6v3.1C362,15.2,364.8,14,368.5,14
	z"/>
<path class="st0" d="M397.9,14.4l-10.7,25.2c-2.3,5.7-5.6,7.5-9.9,7.5c-2.4,0-5.1-0.8-6.6-2.2l2.5-4.9c1.1,0.9,2.5,1.5,3.9,1.5
	c1.9,0,3-0.8,3.9-3l0.1-0.2l-10.3-24h7.1l6.7,16.1l6.7-16.1H397.9z"/>
</svg>
